<?xml version="1.0" encoding="UTF-8"?>
<svg version="1.1" xmlns="http://www.w3.org/2000/svg" width="2796" height="1140">
<path d="M0 0 C922.68 0 1845.36 0 2796 0 C2796 376.2 2796 752.4 2796 1140 C1873.32 1140 950.64 1140 0 1140 C0 763.8 0 387.6 0 0 Z " fill="#FEFEFE" transform="translate(0,0)"/>
<path d="M0 0 C1.87305717 -0.00067623 3.74611426 -0.00164889 5.61917114 -0.00289917 C9.53062787 -0.00436479 13.4420616 -0.00226082 17.35351562 0.00244141 C22.29296684 0.00809908 27.23236373 0.00478395 32.17181301 -0.0009985 C51.95077125 -0.02068144 71.69326856 -0.0245125 91.4453125 1.1328125 C92.7230957 1.20048828 94.00087891 1.26816406 95.31738281 1.33789062 C119.59973148 2.70770035 143.69637931 5.88194947 167.4453125 11.1328125 C168.17073242 11.28717773 168.89615234 11.44154297 169.64355469 11.60058594 C215.17285284 21.29682998 260.64204314 43.89326221 286.76171875 83.77734375 C293.75018665 94.91878423 299.59217756 106.24241898 303.4296875 118.8359375 C304.59103956 122.60586494 306.04558768 126.18721243 307.5625 129.82421875 C308.45425828 132.15620611 309.07632878 134.46564189 309.6953125 136.8828125 C312.40714438 146.19736549 317.89762423 157.02055875 326.4453125 162.1328125 C340.48000353 169.15015801 361.52767833 160.86998154 375.43334961 156.49462891 C382.69216311 154.25605449 390.03011639 152.52228703 397.4453125 150.8828125 C398.55463135 150.6367627 399.6639502 150.39071289 400.80688477 150.13720703 C429.26125547 143.96822623 456.33667257 143.9113853 481.7578125 159.8203125 C499.85738223 172.73795062 510.07822733 190.02755733 516.1953125 211.1953125 C516.51193848 212.27474121 516.51193848 212.27474121 516.83496094 213.37597656 C520.15548715 225.4749054 519.68429114 238.12461785 519.6953125 250.5703125 C519.69665192 251.46265594 519.69799133 252.35499939 519.69937134 253.27438354 C519.6954119 265.42370941 519.41379827 277.25266953 516.85986328 289.17871094 C516.44678569 291.1258682 516.10015918 293.08673128 515.75390625 295.046875 C514.1461679 303.9215907 511.74146612 312.46965764 509.07617188 321.07128906 C508.49567561 322.96823583 507.94558056 324.8744156 507.3984375 326.78125 C501.29988499 347.50749005 492.68803614 367.62872536 483.4453125 387.1328125 C483.1359375 387.79007324 482.8265625 388.44733398 482.5078125 389.12451172 C480.26469199 393.85367689 477.88740792 398.5036037 475.4453125 403.1328125 C474.99687988 403.98810547 474.54844727 404.84339844 474.08642578 405.72460938 C461.19923047 430.07983638 445.92366595 453.63064514 428.88330078 475.30322266 C427.24526695 477.38733565 425.62427872 479.48415987 424.00390625 481.58203125 C421.04448487 485.40783977 418.07100383 489.22236376 415.08984375 493.03125 C413.58113924 494.95923818 412.07535899 496.88946855 410.5703125 498.8203125 C405.22200613 505.66853066 399.78093263 512.43517919 394.28540039 519.16577148 C390.74386127 523.51055712 387.2637577 527.89753317 383.8203125 532.3203125 C379.37267865 538.02453591 374.75169478 543.55894392 370.0546875 549.05859375 C367.68262215 551.84014338 365.37038538 554.66629911 363.0703125 557.5078125 C358.90542647 562.62808457 354.58793101 567.60409095 350.24926758 572.57666016 C347.01536863 576.29216333 343.85209317 580.04919043 340.7578125 583.8828125 C336.98492894 588.54546202 332.98912928 592.95735242 328.92578125 597.3671875 C326.44067018 600.13798851 324.09086917 602.98332612 321.7578125 605.8828125 C318.71837649 609.64872179 315.57936834 613.11735411 312.10546875 616.48046875 C309.77127378 618.80367927 307.6564559 621.29510141 305.5078125 623.7890625 C303.47200658 626.10247832 301.38676211 628.36432369 299.28564453 630.6184082 C279.0249407 652.35868085 260.12953245 675.62041742 246.4453125 702.1328125 C246.06922852 702.85903809 245.69314453 703.58526367 245.30566406 704.33349609 C239.34524605 715.99702992 234.89113682 727.87574524 231.05859375 740.39306641 C230.4453125 742.1328125 230.4453125 742.1328125 229.4453125 743.1328125 C227.5735031 743.22667631 225.6981319 743.25025054 223.82397461 743.24633789 C222.02222023 743.24622459 222.02222023 743.24622459 220.18406677 743.24610901 C218.8768013 743.24094772 217.56953583 743.23578644 216.22265625 743.23046875 C214.87887118 743.22860448 213.53508543 743.22718062 212.19129944 743.22618103 C208.64848973 743.22235652 205.1057208 743.21252682 201.56292725 743.20147705 C197.95016023 743.19126149 194.33738666 743.1866831 190.72460938 743.18164062 C183.6314937 743.17090448 176.53840576 743.15382886 169.4453125 743.1328125 C177.97829368 703.85761136 193.14116925 667.4137002 217.4453125 635.1328125 C218.53228242 633.63319978 219.61668356 632.13172344 220.69921875 630.62890625 C226.51063366 622.59131886 232.31351975 614.82481993 239.140625 607.6171875 C241.60186905 604.96404985 243.867705 602.2046636 246.1328125 599.3828125 C249.16986494 595.61985649 252.3058938 592.1532052 255.77734375 588.79296875 C258.15421507 586.42723032 260.31632465 583.89541249 262.50390625 581.35546875 C264.73335311 578.80304367 267.02532632 576.31393736 269.3203125 573.8203125 C272.60963488 570.21890079 275.76548886 566.55973975 278.8203125 562.7578125 C282.20917219 558.5546685 285.75770516 554.57078073 289.4453125 550.6328125 C293.94490244 545.82734957 298.17634497 540.8812027 302.30078125 535.74609375 C304.44406206 533.13433627 306.6691158 530.62915948 308.9453125 528.1328125 C313.65147632 522.96093456 318.05198062 517.5707128 322.4453125 512.1328125 C323.86084498 510.40271724 325.27752703 508.67356195 326.6953125 506.9453125 C328.27887745 505.0080018 329.86218553 503.07048112 331.4453125 501.1328125 C331.9407959 500.52775879 332.4362793 499.92270508 332.94677734 499.29931641 C339.4170677 491.39512304 345.8033443 483.44479088 352 475.32421875 C354.53390185 472.00649931 357.11124615 468.72403037 359.6953125 465.4453125 C366.31483167 457.03574284 372.90487364 448.60407739 379.4453125 440.1328125 C379.9623877 439.46523926 380.47946289 438.79766602 381.01220703 438.10986328 C415.67623329 393.21932846 446.47961265 338.60511164 456.4453125 282.1328125 C456.58211426 281.35760254 456.71891602 280.58239258 456.85986328 279.78369141 C460.42964148 258.86809127 463.74948281 234.22660443 452.8203125 214.9453125 C449.23679142 210.23249321 445.19899936 208.26232415 439.4453125 207.1328125 C423.69467848 205.80152949 409.37435505 209.7880438 394.4453125 214.1328125 C384.50304946 217.01690779 374.55129161 219.87099258 364.4453125 222.1328125 C363.66567139 222.31376465 362.88603027 222.4947168 362.08276367 222.68115234 C354.49875945 224.26828728 347.00040046 224.50517317 339.28540039 224.50341797 C337.14583295 224.50778592 335.00834496 224.54422137 332.86914062 224.58203125 C311.02361864 224.76070871 294.26315855 215.73504731 278.7578125 200.7578125 C264.79290497 186.59096794 256.63862133 168.30897613 250.3203125 149.6953125 C246.80027057 139.39144024 243.29832254 130.65869536 236.4453125 122.1328125 C235.63835937 121.10800781 234.83140625 120.08320313 234 119.02734375 C220.33998068 102.54558511 199.28116429 92.13534246 179.4453125 85.1328125 C178.11105741 84.61434505 176.77760177 84.09381078 175.4453125 83.5703125 C147.97342864 73.43724059 118.73542332 68.6309456 89.7578125 65.3203125 C88.67846436 65.1963208 87.59911621 65.0723291 86.48706055 64.94458008 C72.11781352 62.98841183 72.11781352 62.98841183 59.3828125 68.37890625 C54.57070136 72.73503106 52.47924321 76.38407834 51.0703125 82.7578125 C47.94660377 96.82332583 39.93162985 107.15182375 28.39453125 115.2734375 C23.95004066 118.07552693 19.31154502 120.17722373 14.4453125 122.1328125 C13.62417969 122.4834375 12.80304688 122.8340625 11.95703125 123.1953125 C0.58274086 127.44077081 -15.03484139 128.03784508 -26.5546875 124.1328125 C-27.82505859 123.730625 -27.82505859 123.730625 -29.12109375 123.3203125 C-45.21061633 117.94967909 -58.1681324 107.45185075 -66.1796875 92.4453125 C-66.99707747 90.68620464 -67.78811228 88.91465122 -68.5546875 87.1328125 C-68.95042969 86.24722656 -69.34617187 85.36164063 -69.75390625 84.44921875 C-76.2703734 67.23202661 -73.75440427 45.60900151 -67.234375 28.7109375 C-62.00940906 17.46155728 -54.86671672 8.57404175 -43.5546875 3.1328125 C-30.17330456 -1.4636818 -13.99473721 -0.01807914 0 0 Z " fill="#F6C443" transform="translate(170.5546875,149.8671875)"/>
<path d="M0 0 C17.82 0 35.64 0 54 0 C54 136.29 54 272.58 54 413 C36.18 413 18.36 413 0 413 C0 276.71 0 140.42 0 0 Z " fill="#F6C443" transform="translate(135,388)"/>
<path d="M0 0 C1.27581592 -0.00623996 2.55163183 -0.01247993 3.86610883 -0.01890898 C7.39614484 -0.03557344 10.92574708 -0.02736943 14.45578444 -0.0149641 C18.26702063 -0.00590408 22.07818286 -0.01988798 25.8894043 -0.03088379 C33.3508533 -0.04866297 40.8121413 -0.04483189 48.27359659 -0.03323323 C54.33746526 -0.02419748 60.40128881 -0.02297551 66.46516228 -0.02732849 C67.32839422 -0.02794142 68.19162616 -0.02855436 69.08101664 -0.02918586 C70.83467553 -0.03046477 72.5883344 -0.03176162 74.34199326 -0.03307623 C90.78265004 -0.04448009 107.22321758 -0.03137102 123.66385972 -0.00987476 C137.77094118 0.00799923 151.877891 0.00488927 165.98497009 -0.0135498 C182.36858409 -0.03495448 198.75211991 -0.04338481 215.13574594 -0.03110075 C216.88262616 -0.02982656 218.6295064 -0.02856907 220.37638664 -0.02732849 C221.66562647 -0.02640284 221.66562647 -0.02640284 222.98091154 -0.02545848 C229.03806516 -0.02200461 235.0951692 -0.02783467 241.15231514 -0.0372467 C248.53308183 -0.04846345 255.91367836 -0.0454334 263.29442555 -0.02412373 C267.0602833 -0.01360934 270.82585729 -0.00949791 274.59171295 -0.02272034 C278.67296142 -0.03683349 282.75349306 -0.01998553 286.8347168 0 C288.02644078 -0.00892289 289.21816476 -0.01784577 290.44600159 -0.02703905 C298.86673578 0.05321741 302.08548744 1.41936553 308.18955994 7.18762207 C311.01192718 11.51748045 311.0640156 14.5765673 310.98277283 19.63293457 C310.98518478 20.49805664 310.98759674 21.36317871 310.99008179 22.2545166 C310.98910587 24.07666627 310.9757733 25.89884654 310.95079041 27.7208252 C310.91646642 30.49985106 310.93014738 33.27569607 310.9495697 36.05480957 C310.94267079 37.83086469 310.93299799 39.60691164 310.92027283 41.38293457 C310.9252327 42.2080957 310.93019257 43.03325684 310.93530273 43.88342285 C310.82737022 49.20640034 309.97733174 52.35775679 306.35386658 56.50793457 C300.73183335 61.59359655 295.10517202 61.07043104 287.7900238 61.01586914 C286.51097876 61.0221091 285.23193372 61.02834907 283.91412973 61.03477812 C280.37043366 61.05146419 276.8271689 61.04322868 273.28347135 61.03083324 C269.45926582 61.021782 265.6351344 61.03575283 261.8109436 61.04675293 C254.32195214 61.06454199 246.833121 61.06069648 239.34412324 61.04910237 C233.25782415 61.04006983 227.17156999 61.03884326 221.08526611 61.04319763 C220.21912332 61.04381056 219.35298053 61.0444235 218.46059099 61.045055 C216.70105357 61.0463339 214.94151616 61.04763075 213.18197876 61.04894537 C196.68171492 61.0603523 180.18153995 61.0472357 163.68129069 61.0257439 C149.52246288 61.00787281 135.36376624 61.01097689 121.2049408 61.02941895 C104.76383539 61.05082367 88.32280789 61.05925365 71.8816905 61.04696989 C70.12861603 61.04569569 68.37554154 61.04443821 66.62246704 61.04319763 C65.75991473 61.04258053 64.89736241 61.04196343 64.00867215 61.04132763 C57.92948881 61.03787353 51.85035488 61.04370435 45.7711792 61.05311584 C38.36294015 61.06433279 30.95487063 61.06130226 23.54665101 61.03999287 C19.7666237 61.02947826 15.9868791 61.02536739 12.20685387 61.03858948 C8.11022609 61.05270231 4.01431249 61.03585487 -0.08229065 61.01586914 C-1.87673622 61.02925347 -1.87673622 61.02925347 -3.70743322 61.04290819 C-9.98932172 60.98326013 -13.90554904 60.79245327 -18.64613342 56.50793457 C-23.30796287 51.21612817 -23.82247655 47.90083768 -23.88441467 40.99230957 C-23.89248642 40.14372375 -23.90055817 39.29513794 -23.90887451 38.4208374 C-23.92271783 36.62192835 -23.93343888 34.822993 -23.94129944 33.02404785 C-23.95847956 30.28248729 -24.00235826 27.54214301 -24.04652405 24.80090332 C-24.05665403 23.05221426 -24.06516918 21.30351496 -24.07191467 19.55480957 C-24.08942276 18.738974 -24.10693085 17.92313843 -24.12496948 17.08258057 C-24.1048625 11.76367839 -23.3332697 8.61363082 -19.64613342 4.50793457 C-13.32968238 -0.20912434 -7.70562796 -0.05780314 0 0 Z " fill="#F6C443" transform="translate(112.64613342285156,922.4920654296875)"/>
<path d="M0 0 C25.14285714 1.57142857 25.14285714 1.57142857 30 4 C30 216.52 30 429.04 30 648 C20.1 648 10.2 648 0 648 C0 434.16 0 220.32 0 0 Z " fill="#F6C444" transform="translate(260,245)"/>
<path d="M0 0 C15.489375 -0.515625 30.97875 -1.03125 46.9375 -1.5625 C54.1922229 -1.90390015 54.1922229 -1.90390015 61.59350586 -2.25219727 C97.93123546 -3.30216456 97.93123546 -3.30216456 110.86160851 7.94987679 C123.10985881 19.81473627 124.94064971 35.2754954 125.41321754 51.65829659 C125.48093782 57.18886139 125.39976649 62.70847841 125.25927734 68.23730469 C125.11660259 73.87805308 125.20151326 79.48944074 125.34482098 85.12918949 C126.23938769 126.06616316 126.23938769 126.06616316 112.43359375 140.52734375 C100.1470582 152.42929009 83.81719523 152.58819432 67.60044861 152.42576599 C60.70966667 152.22665901 53.82353738 151.88655017 46.9375 151.5625 C31.448125 151.046875 15.95875 150.53125 0 150 C0 100.5 0 51 0 0 Z " fill="#72A030" transform="translate(1118,762)"/>
<path d="M0 0 C11.25 3.375 11.25 3.375 15.1328125 5.48046875 C15.9578125 5.92197266 16.7828125 6.36347656 17.6328125 6.81835938 C18.45523437 7.27017578 19.27765625 7.72199219 20.125 8.1875 C20.98609375 8.65091797 21.8471875 9.11433594 22.734375 9.59179688 C24.82749217 10.71975446 26.91573044 11.85580213 29 13 C29.17123947 59.80341371 29.33043836 106.60685182 29.4234314 153.41049194 C29.42481197 154.10355975 29.42619254 154.79662756 29.42761494 155.51069743 C29.45754629 170.57410929 29.48524779 185.63752448 29.51065329 200.70094464 C29.52312631 208.08839091 29.53609189 215.47583629 29.54931641 222.86328125 C29.550624 223.59840807 29.55193159 224.33353489 29.5532788 225.09093828 C29.59586759 248.90460067 29.67096194 272.71802526 29.76297221 296.53154367 C29.85737841 321.00970917 29.91887295 345.48774316 29.9391499 369.96608763 C29.94203131 373.42605516 29.94528767 376.88602225 29.94877243 380.34598923 C29.94978378 381.36741312 29.94978378 381.36741312 29.95081555 382.40947185 C29.96261787 393.35661304 30.0089575 404.30334674 30.06832034 415.25032197 C30.12730668 426.26450478 30.14884397 437.27834445 30.13501377 448.29268779 C30.12861164 454.25727528 30.13838971 460.2206701 30.19205475 466.18504524 C30.24087796 471.65132552 30.24307811 477.11561634 30.20898895 482.58199005 C30.20477883 484.55400251 30.21733519 486.52614134 30.24883182 488.49790676 C30.42516899 500.22372014 29.33697702 507.92166679 21.55072534 516.98634374 C17.28801231 522.02269618 14.29836496 527.76384732 11.0625 533.5 C10.41732422 534.62664063 9.77214844 535.75328125 9.10742188 536.9140625 C6.27150623 541.8864659 3.52820905 546.86277808 1 552 C0.67 552 0.34 552 0 552 C0 369.84 0 187.68 0 0 Z " fill="#F6C443" transform="translate(336,261)"/>
<path d="M0 0 C2.74692369 0.21298611 5.45643458 0.24609856 8.2109375 0.25585938 C16.65836832 0.46863717 22.82894253 1.00103221 28.9609375 7.14648438 C30.30101131 8.82451133 31.63057191 10.51103577 32.9453125 12.20898438 C34.2653125 13.19898438 35.5853125 14.18898438 36.9453125 15.20898438 C37.2753125 11.24898437 37.6053125 7.28898438 37.9453125 3.20898438 C46.5253125 3.20898438 55.1053125 3.20898438 63.9453125 3.20898438 C64.44466379 19.90966611 64.84868241 36.60384651 65.08518028 53.30995369 C65.19797875 61.06940592 65.35128973 68.82384743 65.60498047 76.58007812 C65.82636802 83.35199569 65.96666092 90.12028448 66.01525939 96.89572036 C66.04362467 100.47581383 66.10863835 104.04554295 66.27137375 107.62225723 C66.83554058 120.53818043 66.88954372 132.25285279 58.05157685 142.49237442 C48.18286606 153.19773668 39.66970115 158.13315949 24.97125721 159.19678974 C23.18462552 159.2394266 21.39623543 159.15962433 19.61132812 159.0703125 C14.34167985 158.85779225 9.14143654 158.81609305 3.86914062 158.953125 C-8.25816614 158.95317256 -17.55787096 158.01263419 -26.82221985 149.65171814 C-37.70045196 138.60786142 -37.70045196 138.60786142 -38.36947632 130.69088745 C-38.20189262 127.83473248 -37.58363014 125.02073208 -37.0546875 122.20898438 C-27.4846875 122.20898438 -17.9146875 122.20898438 -8.0546875 122.20898438 C-7.5596875 126.16898438 -7.5596875 126.16898438 -7.0546875 130.20898438 C-4.2224942 133.04117768 -1.4309202 132.57005577 2.3671875 132.61523438 C3.10479309 132.62663452 3.84239868 132.63803467 4.60235596 132.64978027 C6.16583517 132.6686865 7.7293942 132.68175079 9.29296875 132.68945312 C11.67331441 132.70880553 14.05015803 132.77079355 16.4296875 132.83398438 C17.95050037 132.84705164 19.47133791 132.85754977 20.9921875 132.86523438 C22.05188751 132.90227478 22.05188751 132.90227478 23.13299561 132.94006348 C27.06979981 132.90499435 29.50334172 132.18453798 32.39208984 129.61474609 C35.32378173 126.26351514 35.71180061 123.5298753 35.75 119.06054688 C35.76370636 118.40315521 35.77741272 117.74576355 35.79153442 117.06845093 C35.82862442 114.98958577 35.82513539 112.91313145 35.8203125 110.83398438 C35.83845468 109.41597864 35.85926217 107.99800435 35.8828125 106.58007812 C35.93446033 103.12287245 35.94975758 99.66662536 35.9453125 96.20898438 C34.7344671 97.24772992 33.52679455 98.29017407 32.3203125 99.33398438 C31.64742187 99.9140625 30.97453125 100.49414062 30.28125 101.09179688 C28.03713053 103.03392801 28.03713053 103.03392801 26.64172363 104.74224854 C23.23916489 108.63074095 20.72585584 109.96845495 15.57873535 110.45306396 C14.78189331 110.49111145 13.98505127 110.52915894 13.1640625 110.56835938 C12.31469116 110.61204651 11.46531982 110.65573364 10.59020996 110.70074463 C8.78880323 110.77476433 6.98658101 110.83084145 5.18408203 110.87011719 C3.38450349 110.92850965 1.58572761 111.03650998 -0.20751953 111.19824219 C-11.53625443 112.21953048 -19.3345255 110.06894038 -28.25860596 102.81536865 C-37.95141925 94.1004304 -42.98699108 85.37463341 -43.9765625 72.05273438 C-44.13045802 67.97520244 -44.07248039 63.91796188 -43.92285156 59.84130859 C-43.79706071 56.38685891 -43.87173202 52.96949043 -43.99847031 49.51631165 C-44.41106463 36.28448426 -43.10823422 24.56866503 -34.09069824 14.29040527 C-24.23082034 3.85041476 -14.45137874 -1.14810516 0 0 Z " fill="#71A030" transform="translate(1368.0546875,509.791015625)"/>
<path d="M0 0 C2.82367698 0.13744325 5.64352876 0.15990935 8.47011471 0.18000984 C11.87668072 0.21166818 15.27878339 0.31636918 18.68389893 0.42224121 C20.56044411 0.46382858 20.56044411 0.46382858 22.47489929 0.5062561 C30.91446757 1.01421781 30.91446757 1.01421781 34.42347717 3.73396301 C36.18124307 5.73445599 37.658013 7.77947876 39.15655518 9.97692871 C40.2851525 11.19596549 41.43474624 12.39625189 42.61358643 13.56677246 C43.16852783 14.12300293 43.72346924 14.6792334 44.29522705 15.25231934 C44.84759033 15.80081543 45.39995361 16.34931152 45.96905518 16.91442871 C46.826604 17.77777832 46.826604 17.77777832 47.70147705 18.65856934 C50.64731146 21.68837323 50.64731146 21.68837323 54.15655518 23.97692871 C54.67327458 31.80824753 55.06045581 39.63538481 55.29642296 47.47960091 C55.40990302 51.12622462 55.56258239 54.7609809 55.81622314 58.40075684 C56.7713106 72.51291934 57.06531024 85.31326328 47.76461792 96.95730591 C39.22489688 106.29114691 29.8686711 110.86164968 17.21905518 111.89880371 C13.20187015 112.01474815 9.23037121 111.99471387 5.21612549 111.84509277 C1.82198652 111.71928559 -1.53443758 111.79406877 -4.92728806 111.92056274 C-18.72078074 112.35929831 -30.59741377 110.73886801 -41.17235565 101.16945648 C-50.97245532 91.64944441 -54.64064411 81.36033246 -54.87896729 67.79974365 C-54.88162485 65.06613451 -54.81167668 62.34086712 -54.71160889 59.60925293 C-54.58581835 56.1548119 -54.66059445 52.7374329 -54.78707218 49.28425789 C-55.2186708 35.47647533 -53.66998779 23.23935143 -44.06057167 12.56508255 C-31.43692562 -0.4827772 -16.97079151 -0.99743195 0 0 Z " fill="#73A132" transform="translate(1251.8434448242188,510.0230712890625)"/>
<path d="M0 0 C3.47015822 0.12003018 6.90668787 0.04866216 10.37569809 -0.07200432 C24.79057984 -0.50045094 37.05019486 1.20480999 48.01220703 11.37841797 C57.52013314 21.4773731 59.19860925 32.25464069 58.91349792 45.53996086 C58.81526535 48.35441381 58.66017546 51.16445871 58.50280762 53.97613525 C58.3681658 56.85367255 58.34067819 59.728121 58.31580734 62.6083889 C58.27966163 66.07740591 58.17830921 69.54369427 58.07470703 73.01123047 C58.04495789 74.28727142 58.01520874 75.56331238 57.98455811 76.87802124 C57.6566335 82.69507381 57.41288806 86.70914095 53.18701172 90.95898438 C52.02537319 91.90576645 50.84925137 92.8353623 49.65283203 93.73779297 C48.46763326 95.05468049 47.29619572 96.3844237 46.15283203 97.73779297 C45.00946834 99.09116223 43.8380308 100.42090544 42.65283203 101.73779297 C42.04346298 102.58165558 42.04346298 102.58165558 41.42178345 103.44256592 C38.8070292 106.65069516 36.76826565 108.47286862 32.67852783 109.44421387 C28.98624626 109.76434737 25.35128974 109.86516479 21.64501953 109.87841797 C20.27367473 109.89841781 18.90234642 109.91957764 17.53103638 109.9418335 C14.66105585 109.9791186 11.79255674 109.9882376 8.92236328 109.97998047 C6.00068594 109.97494771 3.08591256 110.01637486 0.16552734 110.10302734 C-26.58908503 110.88750555 -26.58908503 110.88750555 -33.96212769 104.22943115 C-36.40012762 101.54744194 -38.35825983 98.77361439 -40.34716797 95.73779297 C-41.73970762 94.13319887 -43.15069959 92.54394789 -44.59716797 90.98779297 C-45.51546389 89.90584034 -46.43268951 88.82297408 -47.34716797 87.73779297 C-47.67716797 87.40779297 -48.00716797 87.07779297 -48.34716797 86.73779297 C-49.21088006 78.90966528 -49.31185552 70.97214692 -49.51735497 63.10117722 C-49.61472725 59.45612479 -49.75036131 55.8225213 -49.98632812 52.18359375 C-50.85287696 38.43352323 -51.30676948 25.5204764 -42.33865356 14.11807251 C-30.30647448 1.37365531 -16.73191797 -0.58196045 0 0 Z " fill="#71A030" transform="translate(1034.34716796875,510.26220703125)"/>
<path d="M0 0 C3.47016369 0.12003037 6.90669712 0.04867117 10.37571239 -0.07201862 C24.81418901 -0.50106937 37.0128752 1.19788916 47.95361328 11.43701172 C58.73354223 22.96741196 59.94805274 35.95548032 59.44555664 51.0300293 C59.33122152 54.49210897 59.41286259 57.91839668 59.54465961 61.37866306 C59.9967105 75.22082835 58.50927477 87.43484705 48.82448578 98.10771942 C39.29442857 107.88686116 29.24665146 111.36702009 15.71922302 111.73112488 C13.02840951 111.72924134 10.34610209 111.65524454 7.6574707 111.55102539 C4.25527941 111.41950765 0.88856342 111.48401841 -2.51301956 111.5994091 C-16.91563473 112.01438959 -28.76598019 110.18165985 -39.61669922 100.06982422 C-49.99787923 89.01294574 -51.58098763 76.58677964 -51.15698719 62.06951427 C-51.13321853 61.3744896 -51.10944986 60.67946493 -51.08496094 59.96337891 C-50.96494399 56.43288043 -51.03629449 52.93544216 -51.15697861 49.40607262 C-51.58045601 34.90873939 -50.00240799 22.4566315 -39.65185547 11.40185547 C-28.10939256 0.62947386 -15.07016273 -0.52424067 0 0 Z " fill="#71A030" transform="translate(1434.34716796875,803.26220703125)"/>
<path d="M0 0 C3.04162868 3.04162868 5.22327678 5.59277646 7.625 9.0625 C14.66621142 19.26325088 14.66621142 19.26325088 23.97744673 27.14636081 C27.32109221 29.1396796 29.60161399 30.66288082 30.74273264 34.49286377 C31.02603889 37.67355267 31.05165755 40.77007538 30.99568176 43.96315002 C31.00604499 45.1775638 31.01640822 46.39197757 31.02708548 47.64319175 C31.04765435 51.00756402 31.03238382 54.36830026 31.00182021 57.73236644 C30.97753432 61.36232486 30.99940069 64.99204579 31.01542664 68.62200928 C31.03943693 75.7298727 31.02061315 82.83700821 30.98705045 89.94480819 C30.94941292 98.22102242 30.95277317 106.49706751 30.95748969 114.77334737 C30.96436918 129.5390716 30.93187979 144.30445176 30.87817383 159.07006836 C30.82606891 173.40024157 30.80482987 187.73003824 30.81665039 202.06030273 C30.8294698 217.66385927 30.82684101 233.26725502 30.79580516 248.87079185 C30.79416694 249.69575037 30.79252872 250.52070889 30.79084086 251.37066616 C30.78755005 253.02757507 30.78422828 254.68448393 30.78087518 256.34139271 C30.77009716 262.11146131 30.76982556 267.88147644 30.77317238 273.6515522 C30.77673275 280.68183973 30.76183509 287.71181137 30.72361246 294.74200029 C30.70449784 298.32954238 30.69331342 301.91663622 30.70369339 305.50422478 C30.71463284 309.39107269 30.68688478 313.27708726 30.65510559 317.16383362 C30.66421284 318.30078834 30.67332009 319.43774305 30.68270332 320.60915095 C30.57320758 328.26359506 30.57320758 328.26359506 27.5621748 332.13189602 C26.71665711 332.74837033 25.87113943 333.36484465 25 334 C23.96440997 335.0832474 22.93479369 336.17227126 21.9140625 337.26953125 C21.11162109 338.13203491 21.11162109 338.13203491 20.29296875 339.01196289 C19.74253906 339.60614014 19.19210937 340.20031738 18.625 340.8125 C18.05136719 341.4305249 17.47773438 342.0485498 16.88671875 342.68530273 C13.3737643 346.4815439 9.91251687 350.31217444 6.5625 354.25390625 C4.47050223 356.59171375 2.21831001 358.78168999 0 361 C0 241.87 0 122.74 0 0 Z " fill="#F6C444" transform="translate(411,350)"/>
<path d="M0 0 C2.06301363 0.0564152 4.12543461 0.08898878 6.18899155 0.11854935 C37.12269415 0.68890495 37.12269415 0.68890495 47.67351913 10.93101883 C60.27363249 25.54602952 56.11304713 48.07894767 54.86101913 65.49351883 C29.78101913 65.49351883 4.70101913 65.49351883 -21.13898087 65.49351883 C-21.83227843 79.89772895 -21.83227843 79.89772895 -15.13898087 85.49351883 C-12.2096185 85.99318478 -9.87308031 86.19722124 -6.95148087 86.15758133 C-6.17135635 86.16236496 -5.39123184 86.16714859 -4.58746719 86.17207718 C-2.94348501 86.17546891 -1.29943471 86.16631714 0.34441757 86.1453743 C2.85409209 86.11859275 5.35929543 86.14514083 7.86883163 86.17711258 C9.47040396 86.17380835 11.07197351 86.16740182 12.67351913 86.15758133 C13.41948349 86.16770248 14.16544785 86.17782364 14.93401718 86.1882515 C18.75919837 86.10264332 20.70147038 85.61072376 23.81023788 83.32701492 C26.35957907 80.24728859 26.35957907 80.24728859 26.86101913 74.49351883 C36.10101913 74.49351883 45.34101913 74.49351883 54.86101913 74.49351883 C54.86101913 90.39723861 54.86101913 90.39723861 48.97599411 97.06445694 C37.90105764 108.01651765 29.05185202 112.34328484 12.97298241 112.34516335 C10.94233515 112.31563203 8.91560564 112.25150209 6.88616562 112.17638016 C3.46820729 112.05062904 0.08240242 112.11139615 -3.33502007 112.22178459 C-16.74321854 112.58420506 -27.21014625 111.74660433 -37.30168533 102.20322037 C-40.57104943 98.73433948 -43.65317937 95.17488786 -46.56694412 91.40231705 C-48.00727725 89.39015641 -48.00727725 89.39015641 -50.13898087 88.49351883 C-50.25494279 80.23539935 -50.3437294 71.97762124 -50.39804173 63.71888828 C-50.42411206 59.8837879 -50.45946121 56.0492454 -50.51617813 52.21446609 C-50.57059251 48.51210631 -50.60042069 44.81028234 -50.61336708 41.10755348 C-50.62259034 39.69651925 -50.64060202 38.28551365 -50.66763115 36.87470818 C-50.70403491 34.8954795 -50.7060242 32.91570913 -50.70660782 30.93614578 C-50.71771088 29.81029572 -50.72881393 28.68444565 -50.74025345 27.52447891 C-49.94605582 23.52100133 -48.15292831 22.16065494 -45.13898087 19.49351883 C-44.06827978 18.13690646 -43.01818519 16.76367746 -41.99322891 15.37218094 C-30.26315165 0.7641402 -18.01715482 -0.50519365 0 0 Z " fill="#73A132" transform="translate(1747.1389808654785,802.5064811706543)"/>
<path d="M0 0 C1.76478195 -0.0879332 1.76478195 -0.0879332 3.56521606 -0.17764282 C17.8957367 -0.74801861 29.87574444 1.96147844 40.62890625 11.83984375 C50.06065834 21.02647089 52.36374889 30.83552109 52.72024155 43.71879578 C52.79074112 51.29255337 52.48630221 58.83234169 52.07928467 66.39349365 C51.84065944 71.30621484 51.738272 76.22178336 51.62304688 81.13867188 C51.37894562 90.72597838 50.97592159 100.2964016 50.5 109.875 C42.25 109.875 34 109.875 25.5 109.875 C25.17 105.255 24.84 100.635 24.5 95.875 C23.13875 97.256875 21.7775 98.63875 20.375 100.0625 C18.77256834 101.68921093 17.14576627 103.29214528 15.5 104.875 C14.21198486 106.15383057 14.21198486 106.15383057 12.89794922 107.45849609 C9.06936862 110.60518623 5.40367555 110.80882147 0.578125 110.99609375 C-0.27597458 111.03828033 -1.13007416 111.08046692 -2.01005554 111.12393188 C-4.75760261 111.23112325 -7.50058508 111.2813415 -10.25 111.3125 C-11.17740997 111.32868378 -12.10481995 111.34486755 -13.06033325 111.36154175 C-23.95521254 111.44315 -32.45327435 111.20120075 -40.70996094 103.47485352 C-43.46659085 100.33482121 -46.00661428 97.15442251 -48.27124023 93.64086914 C-49.39216289 91.72944277 -49.39216289 91.72944277 -51.5 90.875 C-53.39039016 79.09641514 -53.92460554 67.25939505 -47.08398438 56.95898438 C-40.78793571 49.41597294 -34.96919381 46.06027679 -25.25292969 45.03759766 C-9.36065814 43.93624066 6.62925719 44.75990623 22.5 45.875 C22.46680954 43.64520434 22.39723997 41.41593205 22.3125 39.1875 C22.27769531 37.94613281 22.24289062 36.70476563 22.20703125 35.42578125 C21.32098622 30.97597498 20.17797978 29.50063473 16.5 26.875 C13.7751462 26.37382964 11.68373559 26.17054789 8.96875 26.2109375 C8.25521362 26.20615387 7.54167725 26.20137024 6.80651855 26.19644165 C5.30376978 26.1930519 3.80094634 26.20218992 2.29833984 26.22314453 C0.00580525 26.24993217 -2.28183534 26.22337469 -4.57421875 26.19140625 C-6.03907324 26.19471052 -7.5039247 26.20111714 -8.96875 26.2109375 C-9.64909302 26.20081635 -10.32943604 26.19069519 -11.03039551 26.18026733 C-14.65845781 26.26903473 -16.44725163 26.83683803 -19.40820312 28.97900391 C-22.10585668 32.24093203 -22.10585668 32.24093203 -22.5 38.875 C-31.74 38.875 -40.98 38.875 -50.5 38.875 C-50.5 26.20915544 -50.4012756 22.18839497 -42.4375 13.5625 C-41.9739209 13.05805359 -41.5103418 12.55360718 -41.03271484 12.03387451 C-29.76503626 0.56168997 -15.26822753 0.31231362 0 0 Z " fill="#72A131" transform="translate(1593.5,509.125)"/>
<path d="M0 0 C1.76478195 -0.0879332 1.76478195 -0.0879332 3.56521606 -0.17764282 C17.8957367 -0.74801861 29.87574444 1.96147844 40.62890625 11.83984375 C50.06065834 21.02647089 52.36374889 30.83552109 52.72024155 43.71879578 C52.79074112 51.29255337 52.48630221 58.83234169 52.07928467 66.39349365 C51.84065944 71.30621484 51.738272 76.22178336 51.62304688 81.13867188 C51.37894562 90.72597838 50.97592159 100.2964016 50.5 109.875 C42.25 109.875 34 109.875 25.5 109.875 C25.17 105.255 24.84 100.635 24.5 95.875 C23.51 96.885625 22.52 97.89625 21.5 98.9375 C20.19075063 100.27402539 18.85117999 101.58087997 17.5 102.875 C17.05897949 103.45354736 16.61795898 104.03209473 16.16357422 104.62817383 C11.60048316 109.80247647 6.97741077 110.68978409 0.3828125 111.19140625 C-3.20530372 111.37627684 -6.78248282 111.4299458 -10.375 111.4375 C-11.29741486 111.44868866 -12.21982971 111.45987732 -13.17019653 111.47140503 C-24.02710518 111.50566517 -32.47937265 111.14714861 -40.70556641 103.47045898 C-43.46859838 100.33477131 -46.00615438 97.15513604 -48.27124023 93.64086914 C-49.39216289 91.72944277 -49.39216289 91.72944277 -51.5 90.875 C-53.39039016 79.09641514 -53.92460554 67.25939505 -47.08398438 56.95898438 C-40.78793571 49.41597294 -34.96919381 46.06027679 -25.25292969 45.03759766 C-9.36065814 43.93624066 6.62925719 44.75990623 22.5 45.875 C22.46680954 43.64520434 22.39723997 41.41593205 22.3125 39.1875 C22.27769531 37.94613281 22.24289062 36.70476563 22.20703125 35.42578125 C21.32098622 30.97597498 20.17797978 29.50063473 16.5 26.875 C13.7751462 26.37382964 11.68373559 26.17054789 8.96875 26.2109375 C8.25521362 26.20615387 7.54167725 26.20137024 6.80651855 26.19644165 C5.30376978 26.1930519 3.80094634 26.20218992 2.29833984 26.22314453 C0.00580525 26.24993217 -2.28183534 26.22337469 -4.57421875 26.19140625 C-6.03907324 26.19471052 -7.5039247 26.20111714 -8.96875 26.2109375 C-9.64909302 26.20081635 -10.32943604 26.19069519 -11.03039551 26.18026733 C-14.65845781 26.26903473 -16.44725163 26.83683803 -19.40820312 28.97900391 C-22.10585668 32.24093203 -22.10585668 32.24093203 -22.5 38.875 C-31.74 38.875 -40.98 38.875 -50.5 38.875 C-50.5 26.20915544 -50.4012756 22.18839497 -42.4375 13.5625 C-41.9739209 13.05805359 -41.5103418 12.55360718 -41.03271484 12.03387451 C-29.76503626 0.56168997 -15.26822753 0.31231362 0 0 Z " fill="#72A131" transform="translate(1312.5,802.125)"/>
<path d="M0 0 C1.90313965 0.00814224 1.90313965 0.00814224 3.84472656 0.01644897 C7.52708654 0.06192669 11.1961324 0.1840394 14.875 0.34765625 C15.99100586 0.37951019 17.10701172 0.41136414 18.25683594 0.44418335 C25.72289046 0.96215668 25.72289046 0.96215668 28.77832031 3.29562378 C30.3203125 5.09936523 30.3203125 5.09936523 31.87730408 7.29354858 C33.73254436 9.60436716 35.44560233 11.22842987 37.70582581 13.10488892 C44.06941014 18.51747282 49.58749432 23.24698415 50.59046841 31.89689541 C50.78791401 36.20793941 50.65829099 40.46866626 50.46484375 44.77734375 C50.43679193 46.63911804 50.41547542 48.50100469 50.40052795 50.3629303 C50.34382392 55.21407359 50.19705164 60.05824882 50.02996826 64.90667725 C49.87523791 69.87367485 49.80774693 74.84182311 49.73242188 79.81054688 C49.57256218 89.52305317 49.30926119 99.22860165 49 108.9375 C40.75 108.9375 32.5 108.9375 24 108.9375 C23.67 104.3175 23.34 99.6975 23 94.9375 C21.84407349 96.41754517 21.84407349 96.41754517 20.66479492 97.92749023 C15.22072562 104.38813711 10.32853572 109.50526906 1.69659424 110.76672363 C-2.78275751 111.12380179 -7.19821826 111.14023113 -11.6875 111 C-12.61632996 110.98700867 -13.54515991 110.97401733 -14.50213623 110.96063232 C-26.30140244 110.70684901 -36.37179242 109.71053718 -45.125 101.0625 C-51.76765646 93.29989988 -54.91168054 84.19859794 -54.1570282 73.98841858 C-52.66242718 62.65729488 -47.28102227 56.23346732 -38.91796875 48.79443359 C-28.83996191 41.27879536 -16.72667074 42.95466888 -4.8125 43.75 C-2.29785012 43.8455382 0.2171538 43.93218934 2.73242188 44.00976562 C8.8294814 44.21686248 14.91303741 44.53263023 21 44.9375 C20.96680954 42.70770434 20.89723997 40.47843205 20.8125 38.25 C20.77769531 37.00863281 20.74289062 35.76726563 20.70703125 34.48828125 C19.82098622 30.03847498 18.67797978 28.56313473 15 25.9375 C12.2751462 25.43632964 10.18373559 25.23304789 7.46875 25.2734375 C6.75521362 25.26865387 6.04167725 25.26387024 5.30651855 25.25894165 C3.80376978 25.2555519 2.30094634 25.26468992 0.79833984 25.28564453 C-1.49419475 25.31243217 -3.78183534 25.28587469 -6.07421875 25.25390625 C-7.53907324 25.25721052 -9.0039247 25.26361714 -10.46875 25.2734375 C-11.14909302 25.26331635 -11.82943604 25.25319519 -12.53039551 25.24276733 C-16.15845781 25.33153473 -17.94725163 25.89933803 -20.90820312 28.04150391 C-23.60585668 31.30343203 -23.60585668 31.30343203 -24 37.9375 C-33.24 37.9375 -42.48 37.9375 -52 37.9375 C-52 25.27125055 -51.91141226 21.27916597 -44 12.625 C-43.54334961 12.11556854 -43.08669922 11.60613708 -42.61621094 11.08126831 C-31.1120087 -0.94700469 -15.62779364 -0.15684739 0 0 Z " fill="#72A131" transform="translate(1903,510.0625)"/>
<path d="M0 0 C34.98 0 69.96 0 106 0 C106 8.25 106 16.5 106 25 C80.59 25 55.18 25 29 25 C29 38.53 29 52.06 29 66 C51.11 66 73.22 66 96 66 C96 74.25 96 82.5 96 91 C73.89 91 51.78 91 29 91 C29 110.47 29 129.94 29 150 C19.43 150 9.86 150 0 150 C0 100.5 0 51 0 0 Z " fill="#72A030" transform="translate(866,469)"/>
<path d="M0 0 C8.58 0 17.16 0 26 0 C26.495 8.415 26.495 8.415 27 17 C27.73734375 15.845 28.4746875 14.69 29.234375 13.5 C34.52419025 6.3405704 40.15273701 1.19969198 49.05197144 -0.54672241 C52.11017363 -0.99405787 55.14438028 -1.21890728 58.23181152 -1.34155273 C59.75277953 -1.4041663 61.27278938 -1.50505014 62.78820801 -1.64916992 C72.85865115 -2.49625314 80.55409773 1.00133048 88.41708374 7.21847534 C97.11510927 14.58803931 102.58445141 22.13574532 103.82592773 33.66967773 C104.62019119 43.79241083 104.13110146 53.93245448 103.57928467 64.05493164 C103.34061167 68.90729858 103.23826265 73.76255227 103.12304688 78.61914062 C102.87898009 88.0880692 102.47598226 97.53989248 102 107 C92.76 107 83.52 107 74 107 C74.00112793 104.72915527 74.00225586 102.45831055 74.00341797 100.11865234 C74.00278978 92.60669798 73.96929417 85.09514733 73.9197216 77.58336449 C73.89067761 73.02988423 73.87262636 68.47691842 73.87988281 63.92333984 C73.8864814 59.52684978 73.86396192 55.13137579 73.82144547 50.73509598 C73.81032351 49.05985761 73.80960598 47.38451609 73.81957626 45.70927048 C73.83177565 43.35763228 73.80662771 41.00908297 73.77294922 38.65771484 C73.79128059 37.62408813 73.79128059 37.62408813 73.8099823 36.56958008 C73.70635725 32.54126193 72.82702137 30.3903217 70.09632874 27.57090759 C67.63366902 25.31760964 65.93406869 24.23053074 62.50390625 24.16796875 C61.29976074 24.14186523 61.29976074 24.14186523 60.07128906 24.11523438 C59.24338867 24.13908203 58.41548828 24.16292969 57.5625 24.1875 C56.71010742 24.20232422 55.85771484 24.21714844 54.97949219 24.23242188 C50.46893902 24.45244886 47.08196416 24.66803584 43.75 28 C42.79360776 29.30513196 41.87730017 30.64044126 41 32 C39.80916483 33.39018202 38.60039013 34.76517888 37.375 36.125 C36.84648438 36.74632812 36.31796875 37.36765625 35.7734375 38.0078125 C34 40 34 40 31.43334961 41.74633789 C27.41997502 45.78648421 28.27250431 51.68323875 28.28615379 57.0107975 C28.2895272 58.02058946 28.2895272 58.02058946 28.29296875 59.05078125 C28.279846 60.43371248 28.26453999 61.81662456 28.24714661 63.19950867 C28.20734956 66.82783143 28.19710975 70.45565222 28.19311523 74.08416748 C28.18377356 77.79128965 28.14662375 81.49812717 28.11132812 85.20507812 C28.04418821 92.47043021 28.02332293 99.73384621 28 107 C18.76 107 9.52 107 0 107 C0 71.69 0 36.38 0 0 Z " fill="#71A02F" transform="translate(1727,512)"/>
<path d="M0 0 C8.58 0 17.16 0 26 0 C26.495 7.92 26.495 7.92 27 16 C27.73734375 14.845 28.4746875 13.69 29.234375 12.5 C34.52419025 5.3405704 40.15273701 0.19969198 49.05197144 -1.54672241 C52.11017363 -1.99405787 55.14438028 -2.21890728 58.23181152 -2.34155273 C59.75277953 -2.4041663 61.27278938 -2.50505014 62.78820801 -2.64916992 C72.85865115 -3.49625314 80.55409773 0.00133048 88.41708374 6.21847534 C97.11510927 13.58803931 102.58445141 21.13574532 103.82592773 32.66967773 C104.62019119 42.79241083 104.13110146 52.93245448 103.57928467 63.05493164 C103.34061167 67.90729858 103.23826265 72.76255227 103.12304688 77.61914062 C102.87898009 87.0880692 102.47598226 96.53989248 102 106 C92.76 106 83.52 106 74 106 C74 80.92 74 55.84 74 30 C72.68 29.34 71.36 28.68 70 28 C69.5978125 27.32839844 69.195625 26.65679688 68.78125 25.96484375 C66.46479749 23.40963407 64.28835875 23.06740745 60.93034363 22.67182922 C52.6459107 22.29915327 46.82910496 23.84052652 40.40412903 29.21757507 C31.69697526 37.47921006 27.44031113 44.43329057 26.96788406 56.5546093 C26.85338976 62.21669337 26.98970882 67.85208125 27.23181152 73.5090332 C27.36788298 77.18275657 27.39352365 80.85735341 27.42773438 84.53320312 C27.5022432 91.70014685 27.75433981 98.82885871 28 106 C18.76 106 9.52 106 0 106 C0 71.02 0 36.04 0 0 Z " fill="#71A02F" transform="translate(1573,806)"/>
<path d="M0 0 C12.7771875 -0.3403125 12.7771875 -0.3403125 25.8125 -0.6875 C29.81274292 -0.83771606 29.81274292 -0.83771606 33.89379883 -0.9909668 C36.03981465 -1.02313372 38.18589829 -1.05115468 40.33203125 -1.07421875 C41.96416565 -1.1586322 41.96416565 -1.1586322 43.62927246 -1.24475098 C50.2185625 -1.25290145 54.13308851 0.15526874 59.20263672 4.44189453 C66.02240337 11.50565228 65.58416795 19.71508592 65.42578125 29.00390625 C65.43066319 30.73544056 65.43896071 32.46696823 65.45048523 34.19847107 C65.46213002 37.81111593 65.43493345 41.42074377 65.37915039 45.03295898 C65.31081042 49.63994886 65.33663029 54.24067645 65.39124775 58.8476572 C65.42365716 62.41798967 65.40757216 65.98687214 65.37709618 69.55717278 C65.36797978 71.254246 65.37315286 72.9514639 65.39351845 74.64843941 C65.46524921 82.8054813 65.36972796 89.59819894 59.71411133 96.0559082 C53.81158685 100.95917077 48.66287026 101.3185425 41.2109375 100.9765625 C40.15946533 100.9664917 39.10799316 100.9564209 38.0246582 100.94604492 C34.14031076 100.89417886 30.25753249 100.75456298 26.375 100.625 C17.67125 100.41875 8.9675 100.2125 0 100 C0 67 0 34 0 0 Z " fill="#FDFEFC" transform="translate(1147,787)"/>
<path d="M0 0 C9.57 0.33 19.14 0.66 29 1 C29.27843326 24.45321446 29.49226165 47.9060274 29.62174606 71.36056519 C29.68348105 82.25234432 29.76756277 93.14307427 29.90527344 104.03417969 C30.02532165 113.5329894 30.10240165 123.03103893 30.12906194 132.53058624 C30.14463411 137.55556929 30.18091611 142.57837872 30.26876068 147.60266113 C30.35098221 152.34431104 30.37519095 157.08291925 30.35729218 161.82521439 C30.36056011 163.5537744 30.3839834 165.2824494 30.4304657 167.01038742 C30.76726702 180.19115752 27.17641616 187.5614883 18.43690538 197.37967873 C16.49093541 199.57404488 14.68424794 201.87133911 12.87109375 204.17578125 C11.73024891 205.55773902 10.58590606 206.93681917 9.4375 208.3125 C8.55481445 209.38274414 8.55481445 209.38274414 7.65429688 210.47460938 C5.18669866 213.45197248 2.73974366 216.26025634 0 219 C0 146.73 0 74.46 0 0 Z " fill="#F6C443" transform="translate(487,403)"/>
<path d="M0 0 C1.21178421 -0.01921509 2.42356842 -0.03843018 3.67207336 -0.05822754 C4.96904648 -0.06672729 6.26601959 -0.07522705 7.60229492 -0.08398438 C8.60321954 -0.09246651 8.60321954 -0.09246651 9.62436485 -0.10112 C13.15551685 -0.13099738 16.68650768 -0.14952333 20.21777344 -0.15820312 C23.84269717 -0.16916038 27.46611369 -0.2172137 31.09056568 -0.27414703 C33.89865781 -0.31161381 36.70639436 -0.32182203 39.51471519 -0.32487488 C41.49385935 -0.33377774 43.47281221 -0.37096102 45.45161438 -0.40881348 C52.38283572 -0.37474766 57.50869447 0.1422648 63.07113647 4.51229858 C67.88384401 9.6389554 68.27477009 16.33628656 68.71948242 23.06445312 C68.78182571 23.87286652 68.84416901 24.68127991 68.90840149 25.51419067 C69.03724479 27.21298838 69.1604769 28.91222023 69.27832031 30.61181641 C69.45686506 33.1843183 69.65202085 35.75512631 69.8503418 38.32617188 C69.97436274 39.98885992 70.09744038 41.65161865 70.21948242 43.31445312 C70.2756926 44.06894745 70.33190277 44.82344177 70.38981628 45.60079956 C70.77503449 51.21485915 70.77026367 56.65959378 70.77026367 62.32226562 C39.75026367 62.32226562 8.73026367 62.32226562 -23.22973633 62.32226562 C-22.05406065 36.45740076 -22.05406065 36.45740076 -21.29223633 27.38476562 C-21.21811523 26.39798828 -21.14399414 25.41121094 -21.06762695 24.39453125 C-19.93125072 10.61943403 -19.93125072 10.61943403 -15.47973633 5.50976562 C-15.01051758 4.94644531 -14.54129883 4.383125 -14.05786133 3.80273438 C-9.95520439 0.48028356 -5.11518772 0.06583984 0 0 Z " fill="#F6C444" transform="translate(138.229736328125,830.677734375)"/>
<path d="M0 0 C0.57854736 0.23187012 1.15709473 0.46374023 1.75317383 0.70263672 C4.43553724 1.77067158 7.12386898 2.82284785 9.8125 3.875 C10.72193359 4.23980469 11.63136719 4.60460937 12.56835938 4.98046875 C36.35633101 14.2266768 63.63280507 12.49739554 86.99609375 2.75 C87.80175781 2.37875 88.60742188 2.0075 89.4375 1.625 C90.613125 1.08875 91.78875 0.5525 93 0 C93.99 0.495 93.99 0.495 95 1 C94.50192979 7.83318392 93.98521647 14.66477842 93.45581055 21.49560547 C93.27805808 23.8172241 93.10450095 26.13916805 92.93530273 28.46142578 C92.69068706 31.8085716 92.43076904 35.15423875 92.16796875 38.5 C92.05995186 40.04578735 92.05995186 40.04578735 91.94975281 41.62280273 C91.3683071 48.76132377 90.70825741 55.96855632 85 60.9375 C80.74110972 63.86548707 77.84695479 64.13292694 72.7878418 64.17700195 C70.8652076 64.19625481 70.8652076 64.19625481 68.9037323 64.21589661 C67.50223172 64.22406445 66.10072676 64.2315081 64.69921875 64.23828125 C63.99234232 64.24235678 63.28546589 64.2464323 62.55716896 64.25063133 C58.81554076 64.27147402 55.07394904 64.28578339 51.33227539 64.29516602 C47.47532124 64.30622589 43.61894474 64.34062522 39.76219463 64.38033772 C36.78954524 64.40653006 33.81703297 64.41486012 30.84427834 64.41844749 C29.42295239 64.42330687 28.00163231 64.4349025 26.58041954 64.45348549 C24.58720257 64.47792746 22.5937035 64.47448717 20.6003418 64.4699707 C19.46799606 64.47583694 18.33565033 64.48170319 17.16899109 64.48774719 C11.86802169 63.67186199 8.83370208 61.12918582 5.70410156 56.89038086 C3.38899433 52.3798127 3.09581534 47.74483764 2.734375 42.75390625 C2.65125061 41.78396225 2.56812622 40.81401825 2.48248291 39.81468201 C2.22254861 36.73168952 1.98635231 33.64737997 1.75 30.5625 C1.57699195 28.49401705 1.40252671 26.42565544 1.2265625 24.35742188 C0.55162323 16.22147626 -0.1118773 8.16882811 0 0 Z " fill="#F6C443" transform="translate(115,294)"/>
<path d="M0 0 C8.58 0 17.16 0 26 0 C26.495 8.415 26.495 8.415 27 17 C28.340625 15.68 29.68125 14.36 31.0625 13 C32.19365234 11.88625 32.19365234 11.88625 33.34765625 10.75 C35.94504025 8.2438766 35.94504025 8.2438766 37.31030273 5.91992188 C39.04188786 3.38262763 40.45792818 1.74902453 43 0 C48.34876458 -0.98901827 53.52644968 -0.75874426 58.9375 -0.5 C60.39899101 -0.45982155 61.86058824 -0.42332838 63.32226562 -0.390625 C66.88628902 -0.3097623 70.43544434 -0.15340586 74 0 C74 7.92 74 15.84 74 24 C70.2875 23.7525 66.575 23.505 62.75 23.25 C50.55700456 23.33183486 44.05941207 27.30016629 35.60662842 35.72991943 C25.50342454 47.17871498 26.49145553 60.78334043 27.16314697 75.11413574 C27.30980554 78.72072033 27.33976689 82.32841221 27.37890625 85.9375 C27.46340844 92.97130123 27.73488439 99.96160807 28 107 C18.76 107 9.52 107 0 107 C0 71.69 0 36.38 0 0 Z " fill="#72A031" transform="translate(1458,512)"/>
<path d="M0 0 C8.58 0 17.16 0 26 0 C26.495 7.92 26.495 7.92 27 16 C28.36125 14.47375 29.7225 12.9475 31.125 11.375 C32.73500309 9.56984502 34.36123615 7.77908614 36 6 C36.35819824 5.45166504 36.71639648 4.90333008 37.08544922 4.33837891 C38.60681231 2.29153107 39.74171295 1.22691924 42 0 C47.3076925 -0.74401175 52.53898209 -0.56523023 57.875 -0.375 C59.34109132 -0.34487484 60.80724197 -0.31750348 62.2734375 -0.29296875 C65.8516204 -0.23225298 69.42151991 -0.11488581 73 0 C73 7.59 73 15.18 73 23 C64.75 23 56.5 23 48 23 C47.34 24.32 46.68 25.64 46 27 C44.23719788 28.50584412 44.23719788 28.50584412 42.14086914 29.98217773 C34.53853521 35.90888153 28.90771888 41.3242518 27.51123047 51.19970703 C26.95397949 58.77593903 27.08913997 66.32233479 27.36914062 73.90814209 C27.48422589 77.53507481 27.50106266 81.16252675 27.52539062 84.79101562 C27.57982602 91.86963272 27.79301589 98.91772941 28 106 C18.76 106 9.52 106 0 106 C0 71.02 0 36.04 0 0 Z " fill="#71A02F" transform="translate(1115,513)"/>
<path d="M0 0 C9.24 0 18.48 0 28 0 C28 35.31 28 70.62 28 107 C18.76 107 9.52 107 0 107 C0 71.69 0 36.38 0 0 Z " fill="#72A030" transform="translate(1517,805)"/>
<path d="M0 0 C1.12553284 -0.01004562 1.12553284 -0.01004562 2.27380371 -0.02029419 C3.85038393 -0.0250291 5.42710479 -0.01231055 7.00341797 0.01708984 C9.40256127 0.05462978 11.79254444 0.01739829 14.19140625 -0.02734375 C15.73179085 -0.02271755 17.2721698 -0.01374778 18.8125 0 C19.5199939 -0.01416962 20.22748779 -0.02833923 20.9564209 -0.04293823 C25.15487188 0.09377787 27.65151411 1.08394431 30.85400391 3.84521484 C34.82565461 8.29660208 34.92420057 12.44140596 34.8359375 18.2109375 C34.84598312 19.66941101 34.84598312 19.66941101 34.85623169 21.15734863 C34.86097645 23.20470365 34.84818939 25.25216616 34.81884766 27.29931641 C34.78134214 30.42201611 34.81852682 33.53767398 34.86328125 36.66015625 C34.85865525 38.65626545 34.84968594 40.65237029 34.8359375 42.6484375 C34.85010712 43.57466919 34.86427673 44.50090088 34.87887573 45.4552002 C34.75707437 50.30079298 34.14227777 53.3319407 30.86987305 57.01635742 C26.91708324 60.4242401 23.65633153 60.94466148 18.55859375 60.82421875 C17.78367081 60.82854416 17.00874786 60.83286957 16.21034241 60.83732605 C14.58244452 60.83770532 12.95445888 60.82078646 11.3269043 60.78735352 C8.84502741 60.74221073 6.37062022 60.76664608 3.88867188 60.79882812 C2.29945228 60.79060887 0.71024731 60.77837485 -0.87890625 60.76171875 C-1.61343521 60.77072708 -2.34796417 60.77973541 -3.10475159 60.78901672 C-6.95424807 60.66685767 -9.63334748 59.9691262 -12.55517578 57.52783203 C-16.19507177 53.34672984 -15.97604763 48.84656093 -15.92578125 43.52734375 C-15.93389328 42.53141708 -15.94200531 41.53549042 -15.95036316 40.50938416 C-15.95880524 38.40901371 -15.9520028 36.30853343 -15.9309082 34.20825195 C-15.90634454 31.00451766 -15.95101303 27.80683541 -16.00195312 24.60351562 C-16.00158259 22.55728663 -15.99715961 20.51105352 -15.98828125 18.46484375 C-16.00558792 17.51360123 -16.02289459 16.5623587 -16.04072571 15.58229065 C-15.93786953 10.66232299 -15.37857306 7.5673861 -12.04370117 3.8293457 C-8.16593303 0.50151167 -5.00106444 -0.10016082 0 0 Z " fill="#FDFEFD" transform="translate(1429.09375,828.0703125)"/>
<path d="M0 0 C1.12553284 -0.01004562 1.12553284 -0.01004562 2.27380371 -0.02029419 C3.85038393 -0.0250291 5.42710479 -0.01231055 7.00341797 0.01708984 C9.40256127 0.05462978 11.79254444 0.01739829 14.19140625 -0.02734375 C15.73179085 -0.02271755 17.2721698 -0.01374778 18.8125 0 C19.5199939 -0.01416962 20.22748779 -0.02833923 20.9564209 -0.04293823 C25.1458647 0.09348456 27.65425896 1.08149388 30.85620117 3.8293457 C34.88452271 8.34467018 34.90707061 12.62276361 34.80078125 18.46484375 C34.80510666 19.46172714 34.80943207 20.45861053 34.81388855 21.48570251 C34.81426858 23.5843658 34.79728533 25.68309613 34.76391602 27.78149414 C34.71882156 30.98710046 34.74319393 34.18691793 34.77539062 37.39257812 C34.76717133 39.43752089 34.75493732 41.4824523 34.73828125 43.52734375 C34.74728958 44.4806105 34.75629791 45.43387726 34.76557922 46.41603088 C34.65534478 50.88655528 34.37365857 54.07489786 31.36767578 57.52783203 C27.82039374 60.49171563 24.18813775 60.81686708 19.69140625 60.76171875 C18.91744003 60.76983078 18.14347382 60.77794281 17.34605408 60.78630066 C15.71647007 60.79472867 14.08674422 60.78797412 12.45727539 60.7668457 C9.97719561 60.74227119 7.50493539 60.78695624 5.02539062 60.83789062 C3.43488935 60.83752006 1.84438279 60.83309636 0.25390625 60.82421875 C-0.84485085 60.85017876 -0.84485085 60.85017876 -1.96580505 60.87666321 C-6.24033826 60.76177275 -8.79270543 59.83097818 -12.05737305 57.01635742 C-16.01196988 52.56385722 -16.11155227 48.40827487 -16.0234375 42.6484375 C-16.03013458 41.67612183 -16.03683167 40.70380615 -16.04373169 39.70202637 C-16.04847645 37.65467135 -16.03568939 35.60720884 -16.00634766 33.56005859 C-15.96884214 30.43735889 -16.00602682 27.32170102 -16.05078125 24.19921875 C-16.04615525 22.20310955 -16.03718594 20.20700471 -16.0234375 18.2109375 C-16.03760712 17.28470581 -16.05177673 16.35847412 -16.06637573 15.4041748 C-15.9443313 10.54891211 -15.32890401 7.52970071 -12.04150391 3.84521484 C-8.16390703 0.50184932 -5.01054713 -0.10035073 0 0 Z " fill="#FDFEFD" transform="translate(1243.09375,535.0703125)"/>
<path d="M0 0 C1.12553284 -0.01004562 1.12553284 -0.01004562 2.27380371 -0.02029419 C3.85038393 -0.0250291 5.42710479 -0.01231055 7.00341797 0.01708984 C9.40256127 0.05462978 11.79254444 0.01739829 14.19140625 -0.02734375 C15.73179085 -0.02271755 17.2721698 -0.01374778 18.8125 0 C19.5199939 -0.01416962 20.22748779 -0.02833923 20.9564209 -0.04293823 C25.15487188 0.09377787 27.65151411 1.08394431 30.85400391 3.84521484 C34.82565461 8.29660208 34.92420057 12.44140596 34.8359375 18.2109375 C34.84598312 19.66941101 34.84598312 19.66941101 34.85623169 21.15734863 C34.86097645 23.20470365 34.84818939 25.25216616 34.81884766 27.29931641 C34.78134214 30.42201611 34.81852682 33.53767398 34.86328125 36.66015625 C34.85865525 38.65626545 34.84968594 40.65237029 34.8359375 42.6484375 C34.85010712 43.57466919 34.86427673 44.50090088 34.87887573 45.4552002 C34.7568313 50.31046289 34.14140401 53.32967429 30.85400391 57.01416016 C26.97640703 60.35752568 23.82304713 60.95972573 18.8125 60.859375 C18.06214478 60.86607208 17.31178955 60.87276917 16.53869629 60.87966919 C14.96211607 60.8844041 13.38539521 60.87168555 11.80908203 60.84228516 C9.40993873 60.80474522 7.01995556 60.84197671 4.62109375 60.88671875 C3.08070915 60.88209255 1.5403302 60.87312278 0 60.859375 C-1.06124084 60.88062943 -1.06124084 60.88062943 -2.1439209 60.90231323 C-6.34237188 60.76559713 -8.83901411 59.77543069 -12.04150391 57.01416016 C-16.01315461 52.56277292 -16.11170057 48.41796904 -16.0234375 42.6484375 C-16.03013458 41.67612183 -16.03683167 40.70380615 -16.04373169 39.70202637 C-16.04847645 37.65467135 -16.03568939 35.60720884 -16.00634766 33.56005859 C-15.96884214 30.43735889 -16.00602682 27.32170102 -16.05078125 24.19921875 C-16.04615525 22.20310955 -16.03718594 20.20700471 -16.0234375 18.2109375 C-16.03760712 17.28470581 -16.05177673 16.35847412 -16.06637573 15.4041748 C-15.9443313 10.54891211 -15.32890401 7.52970071 -12.04150391 3.84521484 C-8.16390703 0.50184932 -5.01054713 -0.10035073 0 0 Z " fill="#FEFEFE" transform="translate(1029.09375,535.0703125)"/>
<path d="M0 0 C1.19302734 -0.02255859 2.38605469 -0.04511719 3.61523438 -0.06835938 C13.30852172 0.04479184 13.30852172 0.04479184 17.33984375 4.12109375 C17.85216553 4.76336914 18.3644873 5.40564453 18.89233398 6.06738281 C20.52683072 8.04561714 22.14781643 9.11269271 24.28125 10.51171875 C27.64083617 13.3683107 28.14227158 15.95641334 28.71875 20.26953125 C29.33332787 31.30607921 29.6764521 42.01504507 22.55834961 51.04980469 C16.22828264 57.61669354 10.20852998 60.81414526 1.04882812 61.4597168 C-6.02838388 61.54954295 -12.3057942 61.53949752 -18.21484375 57.18359375 C-23.83006743 50.7464891 -22.74457434 41.44991617 -22.60546875 33.40185547 C-22.56257907 30.44295524 -22.60511246 27.49375787 -22.65625 24.53515625 C-22.71414079 8.85655373 -22.71414079 8.85655373 -18.34765625 3.65234375 C-12.82853615 -0.43748784 -6.61209595 -0.19710855 0 0 Z " fill="#FDFEFC" transform="translate(1376.5625,535.0625)"/>
<path d="M0 0 C9.9 0 19.8 0 30 0 C28.46970948 3.8257263 26.95084149 6.98131944 24.8828125 10.4921875 C23.97208984 12.04486328 23.97208984 12.04486328 23.04296875 13.62890625 C22.41003906 14.70011719 21.77710938 15.77132813 21.125 16.875 C19.87736958 18.99725794 18.62996787 21.11965036 17.3828125 23.2421875 C16.82996582 24.1791748 16.27711914 25.11616211 15.70751953 26.08154297 C13.78123958 29.37390077 11.89250664 32.68811338 10 36 C1.75 36 -6.5 36 -15 36 C-13.15787162 30.47361486 -11.43713883 25.45685739 -9.08203125 20.21484375 C-8.6022583 19.14097412 -8.12248535 18.06710449 -7.62817383 16.96069336 C-7.02900146 15.63303955 -6.4298291 14.30538574 -5.8125 12.9375 C-3.894375 8.668125 -1.97625 4.39875 0 0 Z " fill="#73A132" transform="translate(1256,466)"/>
<path d="M0 0 C4.68148695 2.55614932 7.45021125 5.31390177 10 10 C11.60754836 16.43019342 11.51377127 21.97245746 8.51953125 27.9609375 C4.78707741 32.53806659 1.05908099 34.47326 -4.8515625 35.11108398 C-11.37776649 35.35016426 -15.92133024 34.23124163 -21 29.875 C-25.32934815 24.67683709 -26.50754138 20.13857098 -25.95703125 13.4296875 C-24.5167521 8.26819733 -22.23690388 5.2345619 -18.18359375 1.7734375 C-12.13900267 -1.59373348 -6.62161776 -1.73507631 0 0 Z " fill="#73A133" transform="translate(1538,759)"/>
<path d="M0 0 C1.35232224 0.01273453 1.35232224 0.01273453 2.73196411 0.02572632 C5.59599097 0.05916724 8.45714483 0.13442596 11.3203125 0.2109375 C13.26818834 0.24104928 15.21610857 0.26842296 17.1640625 0.29296875 C21.92557687 0.35892773 26.68495856 0.46238246 31.4453125 0.5859375 C31.63330078 8.32763672 31.63330078 8.32763672 29.94140625 10.65234375 C28.92240234 11.39291016 28.92240234 11.39291016 27.8828125 12.1484375 C24.73750326 14.4815001 24.73750326 14.4815001 22.08496094 17.33251953 C19.4549986 20.56049888 17.58516657 22.3418481 13.43432617 23.23071289 C9.87161583 23.45537911 6.38816897 23.44266825 2.8203125 23.3359375 C0.99886719 23.35140625 0.99886719 23.35140625 -0.859375 23.3671875 C-9.56061041 23.2521932 -9.56061041 23.2521932 -13.84765625 20.37890625 C-15.70098811 17.34656694 -16.25721779 15.68055452 -16.2421875 12.1484375 C-16.26667969 11.24222656 -16.29117187 10.33601562 -16.31640625 9.40234375 C-13.98486934 0.7816355 -7.76795756 -0.27782395 0 0 Z " fill="#FBFCF9" transform="translate(1893.5546875,574.4140625)"/>
<path d="M0 0 C0.87935211 0.00848969 1.75870422 0.01697937 2.66470337 0.02572632 C5.45743345 0.05915973 8.247214 0.13441554 11.0390625 0.2109375 C12.93876021 0.24105032 14.83850344 0.26842382 16.73828125 0.29296875 C21.38133478 0.35891754 26.02219962 0.46236572 30.6640625 0.5859375 C30.8725726 6.52134526 30.84965838 9.59824906 27.05639648 14.27026367 C20.67219447 21.06953481 15.72278791 23.44088659 6.2668457 23.796875 C-8.70603855 23.70113152 -8.70603855 23.70113152 -13.6015625 20.3515625 C-15.49637115 17.33011088 -16.0385167 15.692049 -16.0234375 12.1484375 C-16.04792969 11.24222656 -16.07242187 10.33601562 -16.09765625 9.40234375 C-13.797266 0.89679825 -7.68977334 -0.28215564 0 0 Z " fill="#FCFDFB" transform="translate(1304.3359375,867.4140625)"/>
<path d="M0 0 C0.87935211 0.00848969 1.75870422 0.01697937 2.66470337 0.02572632 C5.45743345 0.05915973 8.247214 0.13441554 11.0390625 0.2109375 C12.93876021 0.24105032 14.83850344 0.26842382 16.73828125 0.29296875 C21.38133478 0.35891754 26.02219962 0.46236572 30.6640625 0.5859375 C30.8725726 6.52134526 30.84965838 9.59824906 27.05639648 14.27026367 C20.67219447 21.06953481 15.72278791 23.44088659 6.2668457 23.796875 C-8.70603855 23.70113152 -8.70603855 23.70113152 -13.6015625 20.3515625 C-15.49637115 17.33011088 -16.0385167 15.692049 -16.0234375 12.1484375 C-16.04792969 11.24222656 -16.07242187 10.33601562 -16.09765625 9.40234375 C-13.797266 0.89679825 -7.68977334 -0.28215564 0 0 Z " fill="#FCFDFB" transform="translate(1585.3359375,574.4140625)"/>
<path d="M0 0 C0.75414185 -0.00574036 1.50828369 -0.01148071 2.28527832 -0.01739502 C3.87201968 -0.02145896 5.4588632 -0.01051948 7.04541016 0.01464844 C9.46355821 0.04680596 11.87502659 0.01491912 14.29296875 -0.0234375 C15.84116047 -0.0194723 17.38934805 -0.01178418 18.9375 0 C20.01118835 -0.01821808 20.01118835 -0.01821808 21.10656738 -0.0368042 C24.82676184 0.06652842 27.56818079 0.76508543 30.47070312 3.03417969 C32.96875 6.796875 32.96875 6.796875 32.96875 19.796875 C17.45875 19.796875 1.94875 19.796875 -14.03125 19.796875 C-14.03125 6.796875 -14.03125 6.796875 -11.53320312 3.03417969 C-8.00134376 0.27309092 -4.37178028 -0.07417929 0 0 Z " fill="#FEFEFE" transform="translate(1740.03125,828.203125)"/>
</svg>
