<?xml version="1.0" encoding="UTF-8"?>
<svg version="1.1" xmlns="http://www.w3.org/2000/svg" width="1913" height="882">
<path d="M0 0 C631.29 0 1262.58 0 1913 0 C1913 291.06 1913 582.12 1913 882 C1281.71 882 650.42 882 0 882 C0 590.94 0 299.88 0 0 Z " fill="#FEFEFE" transform="translate(0,0)"/>
<path d="M0 0 C1.87305717 -0.00067623 3.74611426 -0.00164889 5.61917114 -0.00289917 C9.53062787 -0.00436479 13.4420616 -0.00226082 17.35351562 0.00244141 C22.29296684 0.00809908 27.23236373 0.00478395 32.17181301 -0.0009985 C51.95077125 -0.02068144 71.69326856 -0.0245125 91.4453125 1.1328125 C92.7230957 1.20048828 94.00087891 1.26816406 95.31738281 1.33789062 C119.59973148 2.70770035 143.69637931 5.88194947 167.4453125 11.1328125 C168.17073242 11.28717773 168.89615234 11.44154297 169.64355469 11.60058594 C215.17285284 21.29682998 260.64204314 43.89326221 286.76171875 83.77734375 C293.75018665 94.91878423 299.59217756 106.24241898 303.4296875 118.8359375 C304.59103956 122.60586494 306.04558768 126.18721243 307.5625 129.82421875 C308.45425828 132.15620611 309.07632878 134.46564189 309.6953125 136.8828125 C312.40714438 146.19736549 317.89762423 157.02055875 326.4453125 162.1328125 C340.48000353 169.15015801 361.52767833 160.86998154 375.43334961 156.49462891 C382.69216311 154.25605449 390.03011639 152.52228703 397.4453125 150.8828125 C398.55463135 150.6367627 399.6639502 150.39071289 400.80688477 150.13720703 C429.26125547 143.96822623 456.33667257 143.9113853 481.7578125 159.8203125 C499.85738223 172.73795062 510.07822733 190.02755733 516.1953125 211.1953125 C516.51193848 212.27474121 516.51193848 212.27474121 516.83496094 213.37597656 C520.15548715 225.4749054 519.68429114 238.12461785 519.6953125 250.5703125 C519.69665192 251.46265594 519.69799133 252.35499939 519.69937134 253.27438354 C519.6954119 265.42370941 519.41379827 277.25266953 516.85986328 289.17871094 C516.44678569 291.1258682 516.10015918 293.08673128 515.75390625 295.046875 C514.1461679 303.9215907 511.74146612 312.46965764 509.07617188 321.07128906 C508.49567561 322.96823583 507.94558056 324.8744156 507.3984375 326.78125 C501.29988499 347.50749005 492.68803614 367.62872536 483.4453125 387.1328125 C483.1359375 387.79007324 482.8265625 388.44733398 482.5078125 389.12451172 C480.26469199 393.85367689 477.88740792 398.5036037 475.4453125 403.1328125 C474.99687988 403.98810547 474.54844727 404.84339844 474.08642578 405.72460938 C461.19923047 430.07983638 445.92366595 453.63064514 428.88330078 475.30322266 C427.24526695 477.38733565 425.62427872 479.48415987 424.00390625 481.58203125 C421.04448487 485.40783977 418.07100383 489.22236376 415.08984375 493.03125 C413.58113924 494.95923818 412.07535899 496.88946855 410.5703125 498.8203125 C405.22200613 505.66853066 399.78093263 512.43517919 394.28540039 519.16577148 C390.74386127 523.51055712 387.2637577 527.89753317 383.8203125 532.3203125 C379.37267865 538.02453591 374.75169478 543.55894392 370.0546875 549.05859375 C367.68262215 551.84014338 365.37038538 554.66629911 363.0703125 557.5078125 C358.90542647 562.62808457 354.58793101 567.60409095 350.24926758 572.57666016 C347.01536863 576.29216333 343.85209317 580.04919043 340.7578125 583.8828125 C336.98492894 588.54546202 332.98912928 592.95735242 328.92578125 597.3671875 C326.44067018 600.13798851 324.09086917 602.98332612 321.7578125 605.8828125 C318.71837649 609.64872179 315.57936834 613.11735411 312.10546875 616.48046875 C309.77127378 618.80367927 307.6564559 621.29510141 305.5078125 623.7890625 C303.47200658 626.10247832 301.38676211 628.36432369 299.28564453 630.6184082 C279.0249407 652.35868085 260.12953245 675.62041742 246.4453125 702.1328125 C246.06922852 702.85903809 245.69314453 703.58526367 245.30566406 704.33349609 C239.34524605 715.99702992 234.89113682 727.87574524 231.05859375 740.39306641 C230.4453125 742.1328125 230.4453125 742.1328125 229.4453125 743.1328125 C227.5735031 743.22667631 225.6981319 743.25025054 223.82397461 743.24633789 C222.02222023 743.24622459 222.02222023 743.24622459 220.18406677 743.24610901 C218.8768013 743.24094772 217.56953583 743.23578644 216.22265625 743.23046875 C214.87887118 743.22860448 213.53508543 743.22718062 212.19129944 743.22618103 C208.64848973 743.22235652 205.1057208 743.21252682 201.56292725 743.20147705 C197.95016023 743.19126149 194.33738666 743.1866831 190.72460938 743.18164062 C183.6314937 743.17090448 176.53840576 743.15382886 169.4453125 743.1328125 C177.97829368 703.85761136 193.14116925 667.4137002 217.4453125 635.1328125 C218.53228242 633.63319978 219.61668356 632.13172344 220.69921875 630.62890625 C226.51063366 622.59131886 232.31351975 614.82481993 239.140625 607.6171875 C241.60186905 604.96404985 243.867705 602.2046636 246.1328125 599.3828125 C249.16986494 595.61985649 252.3058938 592.1532052 255.77734375 588.79296875 C258.15421507 586.42723032 260.31632465 583.89541249 262.50390625 581.35546875 C264.73335311 578.80304367 267.02532632 576.31393736 269.3203125 573.8203125 C272.60963488 570.21890079 275.76548886 566.55973975 278.8203125 562.7578125 C282.20917219 558.5546685 285.75770516 554.57078073 289.4453125 550.6328125 C293.94490244 545.82734957 298.17634497 540.8812027 302.30078125 535.74609375 C304.44406206 533.13433627 306.6691158 530.62915948 308.9453125 528.1328125 C313.65147632 522.96093456 318.05198062 517.5707128 322.4453125 512.1328125 C323.86084498 510.40271724 325.27752703 508.67356195 326.6953125 506.9453125 C328.27887745 505.0080018 329.86218553 503.07048112 331.4453125 501.1328125 C331.9407959 500.52775879 332.4362793 499.92270508 332.94677734 499.29931641 C339.4170677 491.39512304 345.8033443 483.44479088 352 475.32421875 C354.53390185 472.00649931 357.11124615 468.72403037 359.6953125 465.4453125 C366.31483167 457.03574284 372.90487364 448.60407739 379.4453125 440.1328125 C379.9623877 439.46523926 380.47946289 438.79766602 381.01220703 438.10986328 C415.67623329 393.21932846 446.47961265 338.60511164 456.4453125 282.1328125 C456.58211426 281.35760254 456.71891602 280.58239258 456.85986328 279.78369141 C460.42964148 258.86809127 463.74948281 234.22660443 452.8203125 214.9453125 C449.23679142 210.23249321 445.19899936 208.26232415 439.4453125 207.1328125 C423.69467848 205.80152949 409.37435505 209.7880438 394.4453125 214.1328125 C384.50304946 217.01690779 374.55129161 219.87099258 364.4453125 222.1328125 C363.66567139 222.31376465 362.88603027 222.4947168 362.08276367 222.68115234 C354.49875945 224.26828728 347.00040046 224.50517317 339.28540039 224.50341797 C337.14583295 224.50778592 335.00834496 224.54422137 332.86914062 224.58203125 C311.02361864 224.76070871 294.26315855 215.73504731 278.7578125 200.7578125 C264.79290497 186.59096794 256.63862133 168.30897613 250.3203125 149.6953125 C246.80027057 139.39144024 243.29832254 130.65869536 236.4453125 122.1328125 C235.63835937 121.10800781 234.83140625 120.08320313 234 119.02734375 C220.33998068 102.54558511 199.28116429 92.13534246 179.4453125 85.1328125 C178.11105741 84.61434505 176.77760177 84.09381078 175.4453125 83.5703125 C147.97342864 73.43724059 118.73542332 68.6309456 89.7578125 65.3203125 C88.67846436 65.1963208 87.59911621 65.0723291 86.48706055 64.94458008 C72.11781352 62.98841183 72.11781352 62.98841183 59.3828125 68.37890625 C54.57070136 72.73503106 52.47924321 76.38407834 51.0703125 82.7578125 C47.94660377 96.82332583 39.93162985 107.15182375 28.39453125 115.2734375 C23.95004066 118.07552693 19.31154502 120.17722373 14.4453125 122.1328125 C13.62417969 122.4834375 12.80304688 122.8340625 11.95703125 123.1953125 C0.58274086 127.44077081 -15.03484139 128.03784508 -26.5546875 124.1328125 C-27.82505859 123.730625 -27.82505859 123.730625 -29.12109375 123.3203125 C-45.21061633 117.94967909 -58.1681324 107.45185075 -66.1796875 92.4453125 C-66.99707747 90.68620464 -67.78811228 88.91465122 -68.5546875 87.1328125 C-68.95042969 86.24722656 -69.34617188 85.36164063 -69.75390625 84.44921875 C-76.2703734 67.23202661 -73.75440427 45.60900151 -67.234375 28.7109375 C-62.00940906 17.46155728 -54.86671672 8.57404175 -43.5546875 3.1328125 C-30.17330456 -1.4636818 -13.99473721 -0.01807914 0 0 Z " fill="#F6C443" transform="translate(102.5546875,23.8671875)"/>
<path d="M0 0 C17.86125 -0.165 35.7225 -0.33 54.125 -0.5 C59.76094238 -0.57283203 65.39688477 -0.64566406 71.20361328 -0.72070312 C78.09545898 -0.75683594 78.09545898 -0.75683594 81.32369995 -0.7635498 C83.57439834 -0.77582038 85.82504467 -0.80392924 88.07540894 -0.84460449 C91.48886163 -0.90320859 94.8991076 -0.91124797 98.31298828 -0.90820312 C99.81233256 -0.95138042 99.81233256 -0.95138042 101.34196663 -0.99542999 C108.00436495 -0.91592755 108.00436495 -0.91592755 110.89965439 1.74757385 C112.41451856 3.76952526 113.69761317 5.8381226 115 8 C116.64694485 9.68615782 118.31126121 11.35570171 120 13 C124 17.64864865 124 17.64864865 124 20 C124.556875 20.185625 125.11375 20.37125 125.6875 20.5625 C128.53381076 22.33182831 129.84627809 24.37233194 131.65625 27.1484375 C132.97805413 29.11625689 132.97805413 29.11625689 135.05013561 30.78140831 C137.44892608 33.51079638 137.51110109 34.76113942 137.5415802 38.34902954 C137.5600853 39.43391663 137.57859039 40.51880371 137.59765625 41.63656616 C137.59741455 42.82207062 137.59717285 44.00757507 137.59692383 45.22900391 C137.61196457 46.48148926 137.62700531 47.73397461 137.64250183 49.02441406 C137.67822832 52.45890854 137.69559971 55.89243441 137.70195985 59.3270421 C137.70702992 61.47599876 137.71754435 63.62485861 137.72995567 65.77378464 C137.77295784 73.28072141 137.79417166 80.78737751 137.79614258 88.29443359 C137.7985724 95.27499693 137.84947508 102.25406844 137.92303449 109.23421156 C137.98406093 115.23870538 138.01005696 121.24271045 138.00947779 127.24751222 C138.00976004 130.82875339 138.02396005 134.408567 138.07383156 137.98949051 C138.12821137 141.99224034 138.10973495 145.99158436 138.08520508 149.99462891 C138.11127838 151.16798798 138.13735168 152.34134705 138.16421509 153.55026245 C138.03367836 161.47342537 135.97513327 165.3255454 130.30291271 170.8485775 C129.54295152 171.55854692 128.78299032 172.26851635 128 173 C126.71316436 174.42319276 125.43918789 175.85829884 124.1875 177.3125 C123.630625 177.94800781 123.07375 178.58351563 122.5 179.23828125 C121.18183552 180.78643798 119.92885133 182.38959827 118.6875 184 C118.130625 184.66 117.57375 185.32 117 186 C116.34 186 115.68 186 115 186 C114.62875 186.804375 114.62875 186.804375 114.25 187.625 C113.8375 188.40875 113.425 189.1925 113 190 C112.52995544 191.02493561 112.05991089 192.04987122 111.57562256 193.10586548 C108.73349754 196.29945924 108.38620267 196.43892107 104.38092041 196.7215271 C102.43399189 196.73900377 100.48659853 196.7228938 98.54003906 196.68115234 C96.9186735 196.68223716 96.9186735 196.68223716 95.26455307 196.68334389 C91.76415772 196.67886383 88.2656775 196.63317155 84.765625 196.5859375 C82.60531538 196.57711619 80.44499298 196.57099487 78.28466797 196.56762695 C70.27291646 196.53616497 62.26143943 196.45239749 54.25 196.375 C36.3475 196.25125 18.445 196.1275 0 196 C0 131.32 0 66.64 0 0 Z " fill="#71A030" transform="translate(952,565)"/>
<path d="M0 0 C17.82 0 35.64 0 54 0 C54 136.29 54 272.58 54 413 C36.18 413 18.36 413 0 413 C0 276.71 0 140.42 0 0 Z " fill="#F6C443" transform="translate(67,262)"/>
<path d="M0 0 C1.27581592 -0.00623996 2.55163183 -0.01247993 3.86610883 -0.01890898 C7.39614484 -0.03557344 10.92574708 -0.02736943 14.45578444 -0.0149641 C18.26702063 -0.00590408 22.07818286 -0.01988798 25.8894043 -0.03088379 C33.3508533 -0.04866297 40.8121413 -0.04483189 48.27359659 -0.03323323 C54.33746526 -0.02419748 60.40128881 -0.02297551 66.46516228 -0.02732849 C67.32839422 -0.02794142 68.19162616 -0.02855436 69.08101664 -0.02918586 C70.83467553 -0.03046477 72.5883344 -0.03176162 74.34199326 -0.03307623 C90.78265004 -0.04448009 107.22321758 -0.03137102 123.66385972 -0.00987476 C137.77094118 0.00799923 151.877891 0.00488927 165.98497009 -0.0135498 C182.36858409 -0.03495448 198.75211991 -0.04338481 215.13574594 -0.03110075 C216.88262616 -0.02982656 218.6295064 -0.02856907 220.37638664 -0.02732849 C221.66562647 -0.02640284 221.66562647 -0.02640284 222.98091154 -0.02545848 C229.03806516 -0.02200461 235.0951692 -0.02783467 241.15231514 -0.0372467 C248.53308183 -0.04846345 255.91367836 -0.0454334 263.29442555 -0.02412373 C267.0602833 -0.01360934 270.82585729 -0.00949791 274.59171295 -0.02272034 C278.67296142 -0.03683349 282.75349306 -0.01998553 286.8347168 0 C288.02644078 -0.00892289 289.21816476 -0.01784577 290.44600159 -0.02703905 C298.86673578 0.05321741 302.08548744 1.41936553 308.18955994 7.18762207 C311.01192718 11.51748045 311.0640156 14.5765673 310.98277283 19.63293457 C310.98518478 20.49805664 310.98759674 21.36317871 310.99008179 22.2545166 C310.98910587 24.07666627 310.9757733 25.89884654 310.95079041 27.7208252 C310.91646642 30.49985106 310.93014738 33.27569607 310.9495697 36.05480957 C310.94267079 37.83086469 310.93299799 39.60691164 310.92027283 41.38293457 C310.9252327 42.2080957 310.93019257 43.03325684 310.93530273 43.88342285 C310.82737022 49.20640034 309.97733174 52.35775679 306.35386658 56.50793457 C300.73183335 61.59359655 295.10517202 61.07043104 287.7900238 61.01586914 C286.51097876 61.0221091 285.23193372 61.02834907 283.91412973 61.03477812 C280.37043366 61.05146419 276.8271689 61.04322868 273.28347135 61.03083324 C269.45926582 61.021782 265.6351344 61.03575283 261.8109436 61.04675293 C254.32195214 61.06454199 246.833121 61.06069648 239.34412324 61.04910237 C233.25782415 61.04006983 227.17156999 61.03884326 221.08526611 61.04319763 C220.21912332 61.04381056 219.35298053 61.0444235 218.46059099 61.045055 C216.70105357 61.0463339 214.94151616 61.04763075 213.18197876 61.04894537 C196.68171492 61.0603523 180.18153995 61.0472357 163.68129069 61.0257439 C149.52246288 61.00787281 135.36376624 61.01097689 121.2049408 61.02941895 C104.76383539 61.05082367 88.32280789 61.05925365 71.8816905 61.04696989 C70.12861603 61.04569569 68.37554154 61.04443821 66.62246704 61.04319763 C65.75991473 61.04258053 64.89736241 61.04196343 64.00867215 61.04132763 C57.92948881 61.03787353 51.85035488 61.04370435 45.7711792 61.05311584 C38.36294015 61.06433279 30.95487063 61.06130226 23.54665101 61.03999287 C19.7666237 61.02947826 15.9868791 61.02536739 12.20685387 61.03858948 C8.11022609 61.05270231 4.01431249 61.03585487 -0.08229065 61.01586914 C-1.87673622 61.02925347 -1.87673622 61.02925347 -3.70743322 61.04290819 C-9.98932172 60.98326013 -13.90554904 60.79245327 -18.64613342 56.50793457 C-23.30796287 51.21612817 -23.82247655 47.90083768 -23.88441467 40.99230957 C-23.89248642 40.14372375 -23.90055817 39.29513794 -23.90887451 38.4208374 C-23.92271783 36.62192835 -23.93343888 34.822993 -23.94129944 33.02404785 C-23.95847956 30.28248729 -24.00235826 27.54214301 -24.04652405 24.80090332 C-24.05665403 23.05221426 -24.06516918 21.30351496 -24.07191467 19.55480957 C-24.08942276 18.738974 -24.10693085 17.92313843 -24.12496948 17.08258057 C-24.1048625 11.76367839 -23.3332697 8.61363082 -19.64613342 4.50793457 C-13.32968238 -0.20912434 -7.70562796 -0.05780314 0 0 Z " fill="#F6C443" transform="translate(44.64613342285156,796.4920654296875)"/>
<path d="M0 0 C9.9 0 19.8 0 30 0 C30.16211347 22.2877398 30.28699796 44.57533736 30.3626852 66.86354828 C30.3987639 77.2126219 30.447943 87.56132224 30.52807617 97.91015625 C30.59789551 106.93131465 30.6430192 115.95220267 30.65861946 124.97362375 C30.66773727 129.74957662 30.68913082 134.52475609 30.7401104 139.30046082 C30.78773682 143.79862442 30.80225843 148.29569847 30.79175377 152.79409027 C30.79367456 154.44204893 30.80753329 156.0900452 30.83443832 157.73778534 C31.05161981 171.72859442 31.05161981 171.72859442 26.60951233 176.86682129 C25.43231993 177.94041083 24.2311283 178.98871391 23 180 C21.73929688 181.39992188 21.73929688 181.39992188 20.453125 182.828125 C18.97447309 184.45359341 17.49529943 186.07858734 16.015625 187.703125 C13.98573474 189.93914975 13.98573474 189.93914975 12.359375 192.296875 C11.91078125 192.85890625 11.4621875 193.4209375 11 194 C10.34 194 9.68 194 9 194 C8.71125 194.598125 8.4225 195.19625 8.125 195.8125 C7 198 7 198 5 201 C2.23178101 201.43478394 2.23178101 201.43478394 -1.34228516 201.51513672 C-2.31831192 201.54229767 -2.31831192 201.54229767 -3.3140564 201.57000732 C-5.4724318 201.62413019 -7.63016798 201.65423232 -9.7890625 201.6796875 C-10.52745739 201.69066593 -11.26585228 201.70164436 -12.02662277 201.71295547 C-15.93913036 201.76970098 -19.85131513 201.80750753 -23.76416016 201.83056641 C-27.79412623 201.85810927 -31.81978185 201.95079045 -35.84827614 202.05888176 C-38.95576792 202.13007759 -42.06224598 202.15177055 -45.17048264 202.16046524 C-46.65458902 202.17318058 -48.13866288 202.20431412 -49.62196732 202.25472641 C-61.23028062 202.6235864 -61.23028062 202.6235864 -65.6461792 198.57232666 C-67.66269428 195.79795583 -69.33573756 192.99390414 -71 190 C-72.6292274 188.29671681 -74.28641357 186.61838719 -76 185 C-77.33827304 183.33729713 -78.67189785 181.67083819 -80 180 C-80.69480469 179.49082031 -81.38960937 178.98164063 -82.10546875 178.45703125 C-85.04487947 174.64488827 -84.42762549 170.91070416 -84.25 166.25 C-84.1675 163.1975 -84.085 160.145 -84 157 C-73.11 157 -62.22 157 -51 157 C-50.67 160.3 -50.34 163.6 -50 167 C-49.34 167.99 -48.68 168.98 -48 170 C-45.17398921 170.36657933 -42.57324469 170.54010863 -39.73828125 170.57421875 C-38.91426315 170.5889473 -38.09024506 170.60367584 -37.24125671 170.61885071 C-35.49369603 170.64283175 -33.74599997 170.65823203 -31.99829102 170.66577148 C-29.33827476 170.68729148 -26.68412707 170.76736514 -24.02539062 170.84960938 C-14.04415432 171.29140612 -14.04415432 171.29140612 -5.3515625 167.20703125 C-0.79660305 160.11233684 -2.0097442 150.09259522 -2.0625 142 C-2.04937882 140.15752691 -2.03313288 138.31507328 -2.01367188 136.47265625 C-1.97299464 131.9811875 -1.97491279 127.49156331 -2 123 C-3.1242012 123.94414944 -4.24566228 124.89156215 -5.3659668 125.84033203 C-5.99077438 126.36756866 -6.61558197 126.8948053 -7.25932312 127.4380188 C-9.42838603 129.38440846 -11.11391317 131.51209466 -12.8125 133.875 C-14.51953125 136.2421875 -14.51953125 136.2421875 -16 138 C-16.66 138 -17.32 138 -18 138 C-18 138.66 -18 139.32 -18 140 C-24.42223287 140.2288938 -30.84340921 140.38608357 -37.26879883 140.49438477 C-39.45246683 140.53954401 -41.63586418 140.60088905 -43.81860352 140.67895508 C-46.96438332 140.78861657 -50.10655886 140.8392668 -53.25390625 140.87890625 C-54.2239711 140.92535782 -55.19403595 140.97180939 -56.1934967 141.01966858 C-60.45499107 141.0228159 -62.97124164 140.9225645 -66.22262573 138.00680542 C-71 132.03390942 -71 132.03390942 -71 129 C-71.556875 128.814375 -72.11375 128.62875 -72.6875 128.4375 C-75.55801784 126.65312405 -76.83930466 124.5746697 -78.70703125 121.8046875 C-80.532545 119.25668946 -82.75887888 117.18214425 -85 115 C-88.50589814 111.42398192 -88.44454214 107.9074824 -88.43579102 103.14550781 C-88.44586685 102.35798126 -88.45594269 101.57045471 -88.46632385 100.75906372 C-88.4948063 98.15693942 -88.50068107 95.55539547 -88.50390625 92.953125 C-88.51354936 91.1395443 -88.52364199 89.32596595 -88.53416443 87.51239014 C-88.55212805 83.70937698 -88.55768545 79.90656821 -88.5559082 76.10351562 C-88.55560384 71.24320619 -88.59650825 66.38421659 -88.64822483 61.52421951 C-88.68167912 57.7768153 -88.68766295 54.02972663 -88.68607903 50.28218842 C-88.68960723 48.49129449 -88.70281009 46.70039135 -88.72607613 44.90964508 C-88.92535052 27.98321242 -88.92535052 27.98321242 -83.54454041 22.35931396 C-82.7799929 21.68645355 -82.7799929 21.68645355 -82 21 C-81.13375 20.113125 -80.2675 19.22625 -79.375 18.3125 C-78.59125 17.549375 -77.8075 16.78625 -77 16 C-76.278125 15.071875 -75.55625 14.14375 -74.8125 13.1875 C-74.214375 12.465625 -73.61625 11.74375 -73 11 C-72.34 11 -71.68 11 -71 11 C-70.7525 10.46375 -70.505 9.9275 -70.25 9.375 C-69.8375 8.59125 -69.425 7.8075 -69 7 C-68.54351074 5.97890137 -68.08702148 4.95780273 -67.61669922 3.90576172 C-64.68535994 0.65060217 -64.19088032 0.53907198 -60.05126953 0.19189453 C-57.99570954 0.13875841 -55.93902727 0.12136082 -53.8828125 0.1328125 C-52.79290009 0.1223288 -51.70298767 0.11184509 -50.58004761 0.1010437 C-48.27524216 0.08820109 -45.97030565 0.09088057 -43.66552734 0.10791016 C-40.14312298 0.12491252 -36.6272297 0.06747238 -33.10546875 0.00390625 C-30.86458528 0.00068132 -28.62369033 0.00183903 -26.3828125 0.0078125 C-25.33263947 -0.01465546 -24.28246643 -0.03712341 -23.20046997 -0.06027222 C-16.06035382 0.07536181 -16.06035382 0.07536181 -12.96185303 2.77728271 C-9 7.89091282 -9 7.89091282 -9 11 C-7.68 11.66 -6.36 12.32 -5 13 C-5 13.66 -5 14.32 -5 15 C-3.68 15.66 -2.36 16.32 -1 17 C-0.67 11.39 -0.34 5.78 0 0 Z " fill="#71A02F" transform="translate(1275,239)"/>
<path d="M0 0 C25.14285714 1.57142857 25.14285714 1.57142857 30 4 C30 216.52 30 429.04 30 648 C20.1 648 10.2 648 0 648 C0 434.16 0 220.32 0 0 Z " fill="#F6C444" transform="translate(192,119)"/>
<path d="M0 0 C11.25 3.375 11.25 3.375 15.1328125 5.48046875 C15.9578125 5.92197266 16.7828125 6.36347656 17.6328125 6.81835938 C18.45523437 7.27017578 19.27765625 7.72199219 20.125 8.1875 C20.98609375 8.65091797 21.8471875 9.11433594 22.734375 9.59179688 C24.82749217 10.71975446 26.91573044 11.85580213 29 13 C29.17123947 59.80341371 29.33043836 106.60685182 29.4234314 153.41049194 C29.42481197 154.10355975 29.42619254 154.79662756 29.42761494 155.51069743 C29.45754629 170.57410929 29.48524779 185.63752448 29.51065329 200.70094464 C29.52312631 208.08839091 29.53609189 215.47583629 29.54931641 222.86328125 C29.550624 223.59840807 29.55193159 224.33353489 29.5532788 225.09093828 C29.59586759 248.90460067 29.67096194 272.71802526 29.76297221 296.53154367 C29.85737841 321.00970917 29.91887295 345.48774316 29.9391499 369.96608763 C29.94203131 373.42605516 29.94528767 376.88602225 29.94877243 380.34598923 C29.94978378 381.36741312 29.94978378 381.36741312 29.95081555 382.40947185 C29.96261787 393.35661304 30.0089575 404.30334674 30.06832034 415.25032197 C30.12730668 426.26450478 30.14884397 437.27834445 30.13501377 448.29268779 C30.12861164 454.25727528 30.13838971 460.2206701 30.19205475 466.18504524 C30.24087796 471.65132552 30.24307811 477.11561634 30.20898895 482.58199005 C30.20477883 484.55400251 30.21733519 486.52614134 30.24883182 488.49790676 C30.42516899 500.22372014 29.33697702 507.92166679 21.55072534 516.98634374 C17.28801231 522.02269618 14.29836496 527.76384732 11.0625 533.5 C10.41732422 534.62664063 9.77214844 535.75328125 9.10742188 536.9140625 C6.27150623 541.8864659 3.52820905 546.86277808 1 552 C0.67 552 0.34 552 0 552 C0 369.84 0 187.68 0 0 Z " fill="#F6C443" transform="translate(268,135)"/>
<path d="M0 0 C1.5679319 -0.00726083 3.13585595 -0.01645101 4.70376587 -0.02748108 C7.98755823 -0.04229786 11.27001971 -0.03134949 14.55371094 -0.00268555 C18.75013673 0.03155233 22.9428353 -0.00169312 27.13895226 -0.05489254 C30.37696079 -0.08779948 33.61408895 -0.08278617 36.85219193 -0.06674385 C38.39827662 -0.06393422 39.94443415 -0.07316722 41.49036789 -0.09495354 C53.51281788 -0.23477748 53.51281788 -0.23477748 57.66827393 2.67404175 C59.46108208 4.68868004 60.84355253 6.6555128 62.2265625 8.96484375 C62.77694183 9.66992569 63.32732117 10.37500763 63.89437866 11.10145569 C65.2265625 12.96484375 65.2265625 12.96484375 65.2265625 14.96484375 C65.7834375 15.15046875 66.3403125 15.33609375 66.9140625 15.52734375 C69.72765627 17.27633447 70.95281353 19.23887868 72.6875 22.015625 C74.27038658 24.21440994 74.27038658 24.21440994 77.2762146 26.08569336 C80.02813383 28.36692599 80.20845213 28.87578135 80.9750061 32.64550781 C81.00439525 34.09019645 81.00099927 35.53578869 80.97119141 36.98046875 C80.97849274 37.77296021 80.98579407 38.56545166 80.99331665 39.38195801 C81.00948983 41.99380025 80.98234887 44.60314513 80.953125 47.21484375 C80.95208728 49.03417967 80.95312469 50.85351786 80.95614624 52.67285156 C80.95596697 56.48276319 80.93514709 60.29182685 80.89892578 64.1015625 C80.85354973 68.9810137 80.85246425 73.85922644 80.86596107 78.73883057 C80.87264952 82.49474055 80.85936424 86.25036903 80.83970261 90.00622559 C80.83201349 91.8051201 80.82969602 93.60404596 80.8328743 95.4029541 C80.83361754 97.91898061 80.80832853 100.4334297 80.77587891 102.94921875 C80.78083374 103.69014771 80.78578857 104.43107666 80.79089355 105.19445801 C80.65972025 111.57841215 78.10250781 114.13579707 73.7265625 118.40234375 C71.13789329 120.89851837 71.13789329 120.89851837 69.2265625 123.96484375 C67.16432628 127.05819808 64.88198569 129.37580614 62.2265625 131.96484375 C60.45755032 134.15009409 58.69535338 136.32919681 57.02653503 138.59199524 C54.27977906 140.68696046 51.96704377 140.32408135 48.55200195 140.30541992 C47.8785675 140.305858 47.20513306 140.30629608 46.5112915 140.30674744 C44.28717981 140.30465876 42.06382362 140.28132525 39.83984375 140.2578125 C38.29713859 140.2522168 36.7544281 140.24794658 35.2117157 140.24494934 C31.15259059 140.23349846 27.09378784 140.20402944 23.03479004 140.1708374 C18.89237835 140.14014162 14.74991453 140.12644507 10.60742188 140.11132812 C2.48032086 140.07915975 -5.64651821 140.02796073 -13.7734375 139.96484375 C-13.7734375 139.30484375 -13.7734375 138.64484375 -13.7734375 137.96484375 C-14.37285156 137.71347656 -14.97226563 137.46210938 -15.58984375 137.203125 C-18.06705903 135.79833566 -19.10304038 134.48179027 -20.7109375 132.15234375 C-22.51479081 129.63058408 -24.19051336 127.54776789 -26.3984375 125.33984375 C-28.98097147 122.75730978 -30.75130371 119.99804444 -32.7734375 116.96484375 C-34.40180488 115.26073835 -36.06113502 113.58458934 -37.7734375 111.96484375 C-39.74929194 109.98898931 -38.94081733 106.10616285 -38.95043945 103.40332031 C-38.96029625 102.21545929 -38.96029625 102.21545929 -38.97035217 101.00360107 C-38.990136 98.37088944 -39.00176011 95.73823503 -39.01171875 93.10546875 C-39.01579428 92.20795647 -39.0198698 91.31044418 -39.02406883 90.38573456 C-39.04495307 85.63378629 -39.05924353 80.88186709 -39.06860352 76.12988281 C-39.07966204 71.21908567 -39.11404865 66.3087424 -39.15377522 61.39810562 C-39.17991684 57.62513382 -39.18829325 53.85227041 -39.19188499 50.079216 C-39.19675875 48.26911103 -39.20839514 46.45901115 -39.22692299 44.64899445 C-39.25125863 42.11361267 -39.25035971 39.57940801 -39.2434082 37.04394531 C-39.25621826 36.29673218 -39.26902832 35.54951904 -39.28222656 34.77966309 C-39.24556154 31.10784274 -38.85397823 29.09193038 -36.86906433 25.9598999 C-34.7734375 23.96484375 -34.7734375 23.96484375 -32.7734375 23.96484375 C-32.5465625 23.44921875 -32.3196875 22.93359375 -32.0859375 22.40234375 C-29.07092188 16.80302902 -25.25694589 12.44835214 -20.7734375 7.96484375 C-20.22220215 6.77818115 -19.6709668 5.59151855 -19.10302734 4.36889648 C-14.88022935 -1.55104296 -6.548963 -0.0561061 0 0 Z " fill="#72A131" transform="translate(1082.7734375,239.03515625)"/>
<path d="M0 0 C9.17068746 -0.16228746 18.34087978 -0.28661612 27.51269054 -0.3626852 C31.77175344 -0.39919779 36.02983311 -0.44870817 40.28833008 -0.52807617 C44.39921515 -0.60421237 48.50915554 -0.64600515 52.6206913 -0.6641407 C54.18809191 -0.67706172 55.75544154 -0.70229546 57.32243919 -0.7401104 C69.63762943 -1.02544489 69.63762943 -1.02544489 73.00967407 1.51266479 C74.34106445 3.37866211 74.34106445 3.37866211 76 7 C77.64646685 8.68662458 79.31183067 10.35511706 81 12 C85 16.64864865 85 16.64864865 85 19 C85.556875 19.185625 86.11375 19.37125 86.6875 19.5625 C90.1102173 21.69013508 92.10640749 24.46254949 94 28 C94.48721947 30.92632096 94.70664692 33.26732696 94.67871094 36.17919922 C94.69068512 36.96555756 94.7026593 37.75191589 94.71499634 38.56210327 C94.7470132 41.1434744 94.74238356 43.72315224 94.734375 46.3046875 C94.74283221 48.11158827 94.75247455 49.91848385 94.76324463 51.72537231 C94.77960783 55.50640063 94.77695297 59.28684313 94.76171875 63.06787109 C94.74444648 67.89577414 94.78156241 72.72149986 94.83398056 77.54908562 C94.8671813 81.27944088 94.86764247 85.00927866 94.85883331 88.73974991 C94.85919154 90.51864311 94.87038054 92.29757042 94.89293671 94.07632065 C95.07683808 110.7981746 95.07683808 110.7981746 88.6963501 117.68411255 C87 119 87 119 85 119 C84.89171875 119.57878906 84.7834375 120.15757812 84.671875 120.75390625 C82.858062 126.8175253 77.41371001 131.70889305 73 136 C72.34 136.99 71.68 137.98 71 139 C68.08424377 139.38768005 68.08424377 139.38768005 64.30297852 139.40405273 C63.61500183 139.41091599 62.92702515 139.41777924 62.21820068 139.42485046 C59.93822741 139.44318988 57.65893763 139.43927097 55.37890625 139.43359375 C53.79711176 139.43815239 52.21531926 139.44345701 50.63352966 139.44947815 C47.31541915 139.45842342 43.99754912 139.45597048 40.67944336 139.44604492 C36.42415626 139.43455733 32.16969922 139.45475547 27.91452122 139.48396206 C24.64685275 139.50229688 21.37938415 139.50203704 18.11167717 139.49632454 C16.542763 139.49617097 14.97383558 139.50224491 13.40497017 139.51461601 C11.21158743 139.52947282 9.01974994 139.51889044 6.82641602 139.50170898 C5.57780289 139.50154282 4.32918976 139.50137665 3.04273987 139.50120544 C0 139 0 139 -1.926651 137.09364319 C-3 135 -3 135 -3 133 C-3.556875 132.814375 -4.11375 132.62875 -4.6875 132.4375 C-7.58659694 130.63535866 -8.92168071 128.49169411 -10.75390625 125.65625 C-12.07385351 123.71142135 -12.07385351 123.71142135 -15 122 C-16.88340802 118.9180596 -18.58956641 115.91743979 -20.0625 112.625 C-20.96674867 110.64235617 -20.96674867 110.64235617 -24 110 C-24 82.94 -24 55.88 -24 28 C-23.01 27.67 -22.02 27.34 -21 27 C-20.29325371 25.68747118 -19.63815344 24.34721283 -19 23 C-16.09700661 18.4901837 -12.84686568 14.7482281 -9 11 C-7.9171875 9.6078125 -7.9171875 9.6078125 -6.8125 8.1875 C-6.214375 7.465625 -5.61625 6.74375 -5 6 C-4.34 6 -3.68 6 -3 6 C-2.690625 5.38125 -2.38125 4.7625 -2.0625 4.125 C-1.375 2.75 -0.6875 1.375 0 0 Z " fill="#71A030" transform="translate(827,240)"/>
<path d="M0 0 C9.00569263 -0.18572237 18.01072192 -0.32768597 27.01791477 -0.41449738 C31.20086577 -0.45617299 35.38250262 -0.51265396 39.56469727 -0.60351562 C43.60430147 -0.6907257 47.64264561 -0.73833148 51.68311882 -0.75901794 C53.22100598 -0.77375018 54.75882747 -0.80252181 56.296175 -0.84584045 C68.3476462 -1.17177823 68.3476462 -1.17177823 72.47320557 1.75389099 C74.23819815 3.75402211 75.63010762 5.71801524 77 8 C77.67289063 8.75410156 78.34578125 9.50820313 79.0390625 10.28515625 C82.17421557 13.79868986 85.06845516 17.32927605 87.6640625 21.26171875 C89.05412234 23.20331546 89.05412234 23.20331546 91.5430603 25.10766602 C94.6279689 28.73925127 94.70918871 31.4610382 94.64697266 36.015625 C94.65573425 36.80811646 94.66449585 37.60060791 94.67352295 38.41711426 C94.6954741 41.02863825 94.68098056 43.63845974 94.6640625 46.25 C94.66743189 48.06933923 94.67228554 49.88867627 94.67855835 51.70800781 C94.68592384 55.5177965 94.67523483 59.32699837 94.65185547 63.13671875 C94.6233676 68.01628326 94.63977335 72.89447275 94.66971779 77.77398682 C94.68779968 81.52989024 94.68202871 85.28546853 94.66907883 89.04138184 C94.66574727 90.840293 94.66982313 92.63923385 94.68147659 94.43811035 C94.69420047 96.9543253 94.67478951 99.46832479 94.64697266 101.984375 C94.66215439 103.09576843 94.66215439 103.09576843 94.67764282 104.22961426 C94.59715381 108.16644702 94.16543421 109.80523547 91.58139038 112.84741211 C90.30360214 113.91294312 90.30360214 113.91294312 89 115 C87.12476435 117.36377399 85.33868308 119.77691191 83.55078125 122.20703125 C83.03902344 122.79871094 82.52726562 123.39039063 82 124 C81.34 124 80.68 124 80 124 C79.773125 124.515625 79.54625 125.03125 79.3125 125.5625 C76.64793688 130.51097436 73.35876459 135.42276301 69 139 C65.8994751 139.48101807 65.8994751 139.48101807 62.21191406 139.45410156 C61.20154335 139.45497772 61.20154335 139.45497772 60.17076111 139.45587158 C57.95185193 139.45309232 55.73429846 139.42201114 53.515625 139.390625 C51.97435235 139.38316197 50.4330702 139.37746933 48.89178467 139.37347412 C44.84077627 139.35822246 40.79034415 139.31894539 36.73956299 139.2746582 C32.60379837 139.23369498 28.46794038 139.2154609 24.33203125 139.1953125 C16.2210901 139.15245006 8.11061679 139.08420515 0 139 C0 138.34 0 137.68 0 137 C-0.556875 136.814375 -1.11375 136.62875 -1.6875 136.4375 C-4.5593928 134.65226934 -5.84101336 132.57125167 -7.7109375 129.80078125 C-9.53504286 127.25256134 -11.75970634 125.18285023 -14 123 C-18 118.35135135 -18 118.35135135 -18 116 C-18.61875 115.731875 -19.2375 115.46375 -19.875 115.1875 C-22 114 -22 114 -24 111 C-24.20460407 108.33893294 -24.29371266 105.78164944 -24.29052734 103.11962891 C-24.29724457 102.31767593 -24.30396179 101.51572296 -24.31088257 100.68946838 C-24.32989948 98.0351036 -24.33378866 95.38099119 -24.3359375 92.7265625 C-24.34236307 90.88194677 -24.34909125 89.03733207 -24.35610962 87.19271851 C-24.36809177 83.32409299 -24.3717895 79.45555683 -24.37060547 75.58691406 C-24.37040227 70.63130258 -24.39770065 65.67626454 -24.43214989 60.72078896 C-24.4543957 56.91005831 -24.45844372 53.09946615 -24.45738602 49.28867722 C-24.45974562 47.46183674 -24.46858934 45.63499266 -24.48405075 43.80821609 C-24.5036633 41.25145669 -24.49789176 38.69593988 -24.48583984 36.13916016 C-24.49707886 35.38573837 -24.50831787 34.63231659 -24.51989746 33.85606384 C-24.47581447 30.17285851 -24.084535 28.13348636 -22.09463501 24.99130249 C-20 23 -20 23 -18 23 C-17.773125 22.484375 -17.54625 21.96875 -17.3125 21.4375 C-14.31050001 15.86235716 -10.52856455 11.41244751 -6 7 C-5.278125 6.071875 -4.55625 5.14375 -3.8125 4.1875 C-3.214375 3.465625 -2.61625 2.74375 -2 2 C-1.34 2 -0.68 2 0 2 C0 1.34 0 0.68 0 0 Z " fill="#72A030" transform="translate(1277,622)"/>
<path d="M0 0 C1.24036011 -0.00477356 2.48072021 -0.00954712 3.75866699 -0.01446533 C4.78866066 -0.03023621 4.78866066 -0.03023621 5.83946228 -0.04632568 C8.10447769 -0.07268935 10.36667105 -0.05527284 12.63171387 -0.03497314 C14.20825743 -0.03901593 15.78479735 -0.04483991 17.36132812 -0.05236816 C20.66357066 -0.06120953 23.96483865 -0.04837349 27.26696777 -0.02032471 C31.4979127 0.01386392 35.72657445 -0.00582192 39.95743561 -0.04175949 C43.21239394 -0.06345206 46.46681179 -0.0565359 49.7217865 -0.04099274 C51.28149181 -0.03699313 52.84124636 -0.04189223 54.40089417 -0.05587006 C56.58266922 -0.0711328 58.76076002 -0.04786765 60.94226074 -0.01446533 C62.8028009 -0.00730499 62.8028009 -0.00730499 64.70092773 0 C67.85046387 0.76190186 67.85046387 0.76190186 70.12597656 3.65026855 C70.69505737 4.67710754 71.26413818 5.70394653 71.85046387 6.76190186 C73.49642897 8.44901609 75.16283535 10.11646405 76.85046387 11.76190186 C78.1837972 13.42856852 79.51713053 15.09523519 80.85046387 16.76190186 C81.67546387 17.58690186 82.50046387 18.41190186 83.35046387 19.26190186 C89.85046387 25.76190186 89.85046387 25.76190186 89.85046387 28.76190186 C90.51046387 28.76190186 91.17046387 28.76190186 91.85046387 28.76190186 C91.85046387 46.25190186 91.85046387 63.74190186 91.85046387 81.76190186 C63.47046387 81.76190186 35.09046387 81.76190186 5.85046387 81.76190186 C5.39511096 99.52117947 5.39511096 99.52117947 8.85046387 105.76190186 C10.88405867 107.02994752 10.88405867 107.02994752 12.85046387 107.76190186 C12.85046387 108.42190186 12.85046387 109.08190186 12.85046387 109.76190186 C26.05046387 109.76190186 39.25046387 109.76190186 52.85046387 109.76190186 C53.34546387 108.27690186 53.34546387 108.27690186 53.85046387 106.76190186 C55.08796387 105.67908936 55.08796387 105.67908936 56.35046387 104.57440186 C59.66538554 101.37992409 59.66538554 101.37992409 59.85046387 93.76190186 C70.41046387 93.76190186 80.97046387 93.76190186 91.85046387 93.76190186 C91.85046387 99.70190186 91.85046387 105.64190186 91.85046387 111.76190186 C91.19046387 111.76190186 90.53046387 111.76190186 89.85046387 111.76190186 C89.62358887 112.27752686 89.39671387 112.79315186 89.16296387 113.32440186 C86.16096387 118.8995447 82.37902842 123.34945434 77.85046387 127.76190186 C77.19046387 128.58690186 76.53046387 129.41190186 75.85046387 130.26190186 C73.68935634 132.96328627 71.2945564 135.31780932 68.85046387 137.76190186 C68.52046387 138.42190186 68.19046387 139.08190186 67.85046387 139.76190186 C58.82749977 139.94750197 49.80519535 140.08952608 40.78073692 140.17639923 C36.58991314 140.21810135 32.40039781 140.27463125 28.21032715 140.36541748 C24.16424398 140.45253234 20.11941658 140.50021344 16.0724678 140.5209198 C14.53096368 140.53566903 12.98952615 140.56447407 11.44855881 140.60774231 C-0.61236998 140.93283683 -0.61236998 140.93283683 -4.46514893 137.99798584 C-6.52150074 135.35112381 -8.14953613 133.1815713 -8.14953613 129.76190186 C-8.70641113 129.57627686 -9.26328613 129.39065186 -9.83703613 129.19940186 C-12.70729669 127.41518583 -13.98896113 125.33913072 -15.85266113 122.56658936 C-17.25728947 120.50940281 -17.25728947 120.50940281 -19.83703613 118.07440186 C-21.91746416 115.99397383 -23.05311182 114.45312516 -24.14953613 111.76190186 C-24.80953613 111.76190186 -25.46953613 111.76190186 -26.14953613 111.76190186 C-26.14953613 84.37190186 -26.14953613 56.98190186 -26.14953613 28.76190186 C-25.48953613 28.76190186 -24.82953613 28.76190186 -24.14953613 28.76190186 C-23.77441895 27.90918701 -23.77441895 27.90918701 -23.39172363 27.03924561 C-21.97048243 24.43363673 -20.28114409 22.50895429 -18.27453613 20.32440186 C-16.00153771 17.82904489 -13.8451535 15.36940846 -11.77453613 12.69940186 C-11.23828613 12.06002686 -10.70203613 11.42065186 -10.14953613 10.76190186 C-9.48953613 10.76190186 -8.82953613 10.76190186 -8.14953613 10.76190186 C-8.06703613 10.22565186 -7.98453613 9.68940186 -7.89953613 9.13690186 C-6.44616981 4.53457515 -4.87903748 1.18028419 0 0 Z " fill="#72A131" transform="translate(1629.1495361328125,621.2380981445313)"/>
<path d="M0 0 C2.62309265 -0.41459656 2.62309265 -0.41459656 5.9909668 -0.4675293 C7.24955002 -0.49312424 8.50813324 -0.51871918 9.80485535 -0.54508972 C11.18629831 -0.55631759 12.56775468 -0.56598826 13.94921875 -0.57421875 C15.36448834 -0.58893887 16.77975628 -0.60381844 18.19502258 -0.61885071 C21.16676392 -0.64587318 24.13825455 -0.65939631 27.11010742 -0.66577148 C30.90623054 -0.67661089 34.69967532 -0.73819933 38.49501324 -0.8124876 C41.42146054 -0.8610415 44.34727234 -0.87330438 47.27408791 -0.87583351 C48.67235167 -0.883038 50.07061516 -0.90341321 51.46848106 -0.93753624 C62.36772561 -1.18313109 62.36772561 -1.18313109 66.38516235 1.72885132 C68.17551036 3.73834089 69.61166953 5.69925853 71 8 C72.051875 9.5778125 72.051875 9.5778125 73.125 11.1875 C73.74375 12.115625 74.3625 13.04375 75 14 C76.6459651 15.68711423 78.31237149 17.3545622 80 19 C81.33333333 20.66666667 82.66666667 22.33333333 84 24 C84.85454269 24.65659103 85.70908539 25.31318207 86.58952332 25.9896698 C90.12675764 30.40715427 89.66553348 34.16112649 89.56762695 39.6652832 C89.56835709 40.7389061 89.56908722 41.81252899 89.56983948 42.91868591 C89.56635931 46.46323368 89.52747522 50.00646336 89.48828125 53.55078125 C89.47895472 56.00985496 89.47183785 58.46893797 89.46684265 60.92802429 C89.44776061 67.39732557 89.39864811 73.86606472 89.34332275 80.33514404 C89.29215706 86.93754472 89.26933425 93.5400363 89.24414062 100.14257812 C89.19053144 113.09533868 89.10258441 126.04753463 89 139 C79.76 139 70.52 139 61 139 C60.67 132.73 60.34 126.46 60 120 C58.88625 121.258125 57.7725 122.51625 56.625 123.8125 C55.99851562 124.52019531 55.37203125 125.22789062 54.7265625 125.95703125 C52.859401 128.08803819 52.859401 128.08803819 51 131 C50.38125 131.268125 49.7625 131.53625 49.125 131.8125 C46.68971627 132.91036305 46.68971627 132.91036305 45.50512695 136.02001953 C42.74789431 139.299893 42.43288224 139.45081639 38.43432617 139.80810547 C36.55452042 139.86120619 34.67348944 139.87864576 32.79296875 139.8671875 C31.79421219 139.8776712 30.79545563 139.88815491 29.76643372 139.8989563 C27.65414138 139.9117961 25.54170604 139.90912292 23.42944336 139.89208984 C20.20750773 139.87510547 16.99271481 139.93249251 13.77148438 139.99609375 C11.71614795 139.99931932 9.66079903 139.99815974 7.60546875 139.9921875 C6.64795212 140.01465546 5.69043549 140.03712341 4.7039032 140.06027222 C0.68667975 139.97722043 -1.95445538 139.85810498 -5.12802124 137.253479 C-6.90036672 135.24262756 -8.46447072 133.19467751 -10 131 C-10.804375 130.05125 -11.60875 129.1025 -12.4375 128.125 C-14 126 -14 126 -14 124 C-14.8353125 123.7215625 -14.8353125 123.7215625 -15.6875 123.4375 C-18.61008442 121.62075833 -19.93161032 119.43244405 -21.75390625 116.55859375 C-23.01360334 114.69351671 -23.01360334 114.69351671 -26 114 C-26.12394421 109.39194479 -26.21449675 104.78486719 -26.2746582 100.17553711 C-26.29974547 98.60895886 -26.33382415 97.04249701 -26.37719727 95.47631836 C-26.43811226 93.21959691 -26.46626499 90.96442706 -26.48828125 88.70703125 C-26.51408768 88.01100296 -26.5398941 87.31497467 -26.56648254 86.59785461 C-26.56872763 82.67244849 -26.14140222 81.16654228 -23.56396484 78.13085938 C-22.29480225 77.07608398 -22.29480225 77.07608398 -21 76 C-20.08579983 74.91099153 -19.18544095 73.80985265 -18.3125 72.6875 C-17.549375 71.800625 -16.78625 70.91375 -16 70 C-15.34 70 -14.68 70 -14 70 C-13.773125 69.484375 -13.54625 68.96875 -13.3125 68.4375 C-10.63557757 63.46607263 -7.33930284 58.64176788 -3 55 C-0.2411499 54.51898193 -0.2411499 54.51898193 2.96191406 54.54589844 C4.16285706 54.54620056 5.36380005 54.54650269 6.60113525 54.54681396 C7.89291687 54.56745911 9.18469849 54.58810425 10.515625 54.609375 C11.85511429 54.61683929 13.19461452 54.62253134 14.53411865 54.62652588 C18.05251436 54.64176787 21.57024515 54.68103582 25.08837891 54.7253418 C28.68122361 54.76632636 32.2741762 54.7845436 35.8671875 54.8046875 C42.91172966 54.84753255 49.95582132 54.91576554 57 55 C56.96674188 52.14282511 56.89930452 49.29314616 56.8125 46.4375 C56.80669922 45.63763672 56.80089844 44.83777344 56.79492188 44.01367188 C56.61027459 38.98716236 55.83369153 35.24816227 52.60128784 31.28875732 C49.62199441 28.89094593 46.26723424 29.00289568 42.62890625 29.0703125 C41.82895737 29.06361542 41.02900848 29.05691833 40.20481873 29.05001831 C38.51793551 29.04526853 36.83092235 29.05809196 35.14428711 29.08740234 C32.57176047 29.12486514 30.00780632 29.08778077 27.43554688 29.04296875 C25.79164791 29.04759564 24.14775426 29.05656683 22.50390625 29.0703125 C21.35989098 29.04905807 21.35989098 29.04905807 20.19276428 29.02737427 C15.93139923 29.15721498 13.54404087 29.89329493 10.53100586 32.99560547 C6.92176498 37.13132408 7.69292575 39.76366823 7 46 C-3.56 46 -14.12 46 -25 46 C-25.103125 43.298125 -25.20625 40.59625 -25.3125 37.8125 C-25.35802002 36.97050049 -25.40354004 36.12850098 -25.45043945 35.26098633 C-25.52813685 31.04377199 -25.41222225 29.49736979 -22.6171875 26.125 C-21.75351563 25.42375 -20.88984375 24.7225 -20 24 C-19.278125 23.071875 -18.55625 22.14375 -17.8125 21.1875 C-17.214375 20.465625 -16.61625 19.74375 -16 19 C-15.34 19 -14.68 19 -14 19 C-13.773125 18.484375 -13.54625 17.96875 -13.3125 17.4375 C-10.31116028 11.86358338 -6.53210877 7.40961934 -2 3 C-1.34 2.01 -0.68 1.02 0 0 Z " fill="#72A030" transform="translate(1454,240)"/>
<path d="M0 0 C1.42916075 0.01119545 2.85834458 0.019734 4.28753662 0.02572632 C8.04300903 0.04859845 11.79708144 0.10750379 15.55200195 0.1739502 C19.3860378 0.23540998 23.22030068 0.26274897 27.0546875 0.29296875 C34.57355385 0.35725199 42.09126802 0.45960764 49.609375 0.5859375 C49.609375 1.2459375 49.609375 1.9059375 49.609375 2.5859375 C50.20878906 2.83730469 50.80820313 3.08867188 51.42578125 3.34765625 C53.90299653 4.75244559 54.93897788 6.06899098 56.546875 8.3984375 C58.35072831 10.92019717 60.02645086 13.00301336 62.234375 15.2109375 C64.81690897 17.79347147 66.58724121 20.55273681 68.609375 23.5859375 C70.23774238 25.2900429 71.89707252 26.96619191 73.609375 28.5859375 C74.609375 29.5859375 74.609375 29.5859375 74.73242283 31.4268961 C74.73150104 32.23715213 74.73057924 33.04740816 74.72962952 33.88221741 C74.73169151 35.27261482 74.73169151 35.27261482 74.73379517 36.69110107 C74.72840225 38.22858002 74.72840225 38.22858002 74.72290039 39.79711914 C74.72304642 40.87015793 74.72319244 41.94319672 74.7233429 43.04875183 C74.72264324 46.61455266 74.71484838 50.18030199 74.70703125 53.74609375 C74.70516726 56.21089143 74.70374327 58.67568949 74.70274353 61.14048767 C74.69891687 67.64247655 74.68908532 74.14444325 74.67803955 80.64642334 C74.66729248 87.27534567 74.66324659 93.90427443 74.65820312 100.53320312 C74.64746319 113.55079258 74.62986519 126.56835973 74.609375 139.5859375 C65.369375 139.5859375 56.129375 139.5859375 46.609375 139.5859375 C46.279375 133.3159375 45.949375 127.0459375 45.609375 120.5859375 C44.619375 121.9059375 43.629375 123.2259375 42.609375 124.5859375 C41.949375 124.5859375 41.289375 124.5859375 40.609375 124.5859375 C40.34125 125.2253125 40.073125 125.8646875 39.796875 126.5234375 C38.609375 128.5859375 38.609375 128.5859375 35.609375 129.5859375 C34.40055404 131.58610216 34.40055404 131.58610216 33.609375 133.5859375 C32.949375 133.5859375 32.289375 133.5859375 31.609375 133.5859375 C31.3 134.2046875 30.990625 134.8234375 30.671875 135.4609375 C29.984375 136.8359375 29.296875 138.2109375 28.609375 139.5859375 C22.11333512 139.68723265 15.61749832 139.75735825 9.12084961 139.80566406 C6.91016021 139.82579814 4.69952418 139.85310765 2.48901367 139.88769531 C-0.68584346 139.93613379 -3.85999748 139.95888822 -7.03515625 139.9765625 C-8.02586624 139.99720764 -9.01657623 140.01785278 -10.03730774 140.03912354 C-10.95803574 140.03942566 -11.87876373 140.03972778 -12.82739258 140.04003906 C-13.6379158 140.04892151 -14.44843903 140.05780396 -15.28352356 140.06695557 C-17.390625 139.5859375 -17.390625 139.5859375 -19.17582703 137.68255615 C-20.390625 135.5859375 -20.390625 135.5859375 -20.390625 133.5859375 C-20.9475 133.4003125 -21.504375 133.2146875 -22.078125 133.0234375 C-24.94864284 131.23906155 -26.22992966 129.1606072 -28.09765625 126.390625 C-29.92317 123.84262696 -32.14950388 121.76808175 -34.390625 119.5859375 C-34.926875 118.8434375 -35.463125 118.1009375 -36.015625 117.3359375 C-37.36435334 115.28880875 -37.36435334 115.28880875 -40.390625 114.5859375 C-40.51456921 109.97788229 -40.60512175 105.37080469 -40.6652832 100.76147461 C-40.69037047 99.19489636 -40.72444915 97.62843451 -40.76782227 96.06225586 C-40.82873726 93.80553441 -40.85688999 91.55036456 -40.87890625 89.29296875 C-40.90471268 88.59694046 -40.9305191 87.90091217 -40.95710754 87.18379211 C-40.95933487 83.28944397 -40.54466252 81.76686475 -37.98510742 78.76049805 C-37.12892822 78.04289307 -36.27274902 77.32528809 -35.390625 76.5859375 C-34.730625 75.7609375 -34.070625 74.9359375 -33.390625 74.0859375 C-31.390625 71.5859375 -31.390625 71.5859375 -28.890625 69.1484375 C-26.30195579 66.65226288 -26.30195579 66.65226288 -24.390625 63.5859375 C-23.730625 62.5959375 -23.070625 61.6059375 -22.390625 60.5859375 C-21.80966064 59.7091333 -21.22869629 58.8323291 -20.63012695 57.92895508 C-15.37563996 54.12856985 -9.87022563 54.97317677 -3.55859375 55.09765625 C-2.1981181 55.10698938 -0.83762558 55.11410314 0.52287292 55.11909485 C4.09238617 55.13812619 7.66087153 55.1871907 11.22998047 55.24261475 C14.87648617 55.29389246 18.52315905 55.31662688 22.16992188 55.34179688 C29.3168251 55.39531537 36.46303271 55.48057932 43.609375 55.5859375 C43.57626225 52.68706632 43.50899606 49.79577128 43.421875 46.8984375 C43.41607422 46.08181641 43.41027344 45.26519531 43.40429688 44.42382812 C43.24221664 39.97562621 43.08172712 38.14727275 40.12109375 34.62890625 C39.29222656 33.95472656 38.46335937 33.28054688 37.609375 32.5859375 C37.114375 31.5959375 37.114375 31.5959375 36.609375 30.5859375 C31.45004333 30.41233183 26.2924259 30.28561383 21.13085938 30.20141602 C19.37697727 30.16630601 17.62329872 30.1186038 15.87011719 30.05786133 C13.34258805 29.9725106 10.81777423 29.93315954 8.2890625 29.90234375 C7.12151932 29.84815025 7.12151932 29.84815025 5.9303894 29.79286194 C2.67393332 29.79053625 0.47842383 29.97646587 -2.22796631 31.8744812 C-7.00551275 36.79466349 -6.52412793 38.78746391 -7.390625 46.5859375 C-17.620625 46.5859375 -27.850625 46.5859375 -38.390625 46.5859375 C-39.328125 29.57700893 -39.328125 29.57700893 -35.203125 24.3359375 C-33.97278315 23.04606298 -32.70464591 21.79045666 -31.390625 20.5859375 C-30.50375 19.6784375 -29.616875 18.7709375 -28.703125 17.8359375 C-27.5584375 16.7221875 -27.5584375 16.7221875 -26.390625 15.5859375 C-25.66875 14.6578125 -24.946875 13.7296875 -24.203125 12.7734375 C-23.605 12.0515625 -23.006875 11.3296875 -22.390625 10.5859375 C-21.730625 10.5859375 -21.070625 10.5859375 -20.390625 10.5859375 C-20.143125 10.0496875 -19.895625 9.5134375 -19.640625 8.9609375 C-19.228125 8.1771875 -18.815625 7.3934375 -18.390625 6.5859375 C-18.00165039 5.55903809 -17.61267578 4.53213867 -17.21191406 3.47412109 C-13.57894042 -1.85151114 -5.71497789 -0.13088798 0 0 Z " fill="#72A030" transform="translate(1152.390625,621.4140625)"/>
<path d="M0 0 C1.42916075 0.01119545 2.85834458 0.019734 4.28753662 0.02572632 C8.04300903 0.04859845 11.79708144 0.10750379 15.55200195 0.1739502 C19.3860378 0.23540998 23.22030068 0.26274897 27.0546875 0.29296875 C34.57355385 0.35725199 42.09126802 0.45960764 49.609375 0.5859375 C49.609375 1.2459375 49.609375 1.9059375 49.609375 2.5859375 C50.16625 2.7715625 50.723125 2.9571875 51.296875 3.1484375 C54.1687678 4.93366816 55.45038836 7.01468583 57.3203125 9.78515625 C59.14441786 12.33337616 61.36908134 14.40308727 63.609375 16.5859375 C67.609375 21.23458615 67.609375 21.23458615 67.609375 23.5859375 C68.2075 23.8334375 68.805625 24.0809375 69.421875 24.3359375 C71.98737272 25.8019362 73.04550793 27.08869982 74.609375 29.5859375 C74.97851849 31.79603958 74.97851849 31.79603958 74.97013855 34.24298096 C74.97426254 35.17403656 74.97838654 36.10509216 74.9826355 37.06436157 C74.97184967 38.07856171 74.96106384 39.09276184 74.94995117 40.13769531 C74.95060829 41.74791061 74.95060829 41.74791061 74.95127869 43.39065552 C74.94918799 46.94030926 74.92584301 50.48949122 74.90234375 54.0390625 C74.89674881 56.49957013 74.89247823 58.9600811 74.88948059 61.42059326 C74.87802385 67.89796163 74.84854924 74.37512833 74.81536865 80.85241699 C74.78468582 87.46147941 74.77097906 94.0705744 74.75585938 100.6796875 C74.72368054 113.64854038 74.67090555 126.61719062 74.609375 139.5859375 C65.369375 139.5859375 56.129375 139.5859375 46.609375 139.5859375 C46.279375 133.3159375 45.949375 127.0459375 45.609375 120.5859375 C44.619375 121.9059375 43.629375 123.2259375 42.609375 124.5859375 C41.949375 124.5859375 41.289375 124.5859375 40.609375 124.5859375 C40.3825 125.1015625 40.155625 125.6171875 39.921875 126.1484375 C38.11223819 129.50919157 35.98222663 132.59693103 33.609375 135.5859375 C33.13814209 136.27171875 32.66690918 136.9575 32.18139648 137.6640625 C28.11356452 140.7036423 23.9900073 140.15732311 19.04296875 140.1171875 C18.01252945 140.1210144 16.98209015 140.12484131 15.92042542 140.12878418 C13.74422223 140.13150401 11.56798639 140.12413793 9.3918457 140.10742188 C6.05541412 140.08599235 2.72113067 140.10723329 -0.61523438 140.1328125 C-2.72917143 140.13016967 -4.84310715 140.12504561 -6.95703125 140.1171875 C-7.9570668 140.12528442 -8.95710236 140.13338135 -9.98744202 140.14172363 C-10.91528 140.12911499 -11.84311798 140.11650635 -12.79907227 140.10351562 C-13.61529556 140.10033325 -14.43151886 140.09715088 -15.2724762 140.09387207 C-17.390625 139.5859375 -17.390625 139.5859375 -19.17759705 137.67858887 C-20.390625 135.5859375 -20.390625 135.5859375 -20.390625 133.5859375 C-20.9475 133.4003125 -21.504375 133.2146875 -22.078125 133.0234375 C-24.9500178 131.23820684 -26.23163836 129.15718917 -28.1015625 126.38671875 C-29.92566786 123.83849884 -32.15033134 121.76878773 -34.390625 119.5859375 C-38.28666088 115.57868922 -39.01700404 112.40249207 -39.02734375 106.9765625 C-39.04375664 105.88719391 -39.04375664 105.88719391 -39.0605011 104.77581787 C-39.07631899 103.24286971 -39.08157618 101.70978046 -39.0769043 100.17675781 C-39.07811507 97.85497128 -39.1378007 95.53956524 -39.20117188 93.21875 C-39.29472313 85.23959648 -38.91057717 79.3008431 -33.16015625 73.21069336 C-32.57621094 72.67452393 -31.99226563 72.13835449 -31.390625 71.5859375 C-30.50375 70.6990625 -29.616875 69.8121875 -28.703125 68.8984375 C-27.94 68.1353125 -27.176875 67.3721875 -26.390625 66.5859375 C-25.730625 65.5959375 -25.070625 64.6059375 -24.390625 63.5859375 C-23.730625 62.5959375 -23.070625 61.6059375 -22.390625 60.5859375 C-21.80966064 59.7091333 -21.22869629 58.8323291 -20.63012695 57.92895508 C-15.37563996 54.12856985 -9.87022563 54.97317677 -3.55859375 55.09765625 C-2.1981181 55.10698938 -0.83762558 55.11410314 0.52287292 55.11909485 C4.09238617 55.13812619 7.66087153 55.1871907 11.22998047 55.24261475 C14.87648617 55.29389246 18.52315905 55.31662688 22.16992188 55.34179688 C29.3168251 55.39531537 36.46303271 55.48057932 43.609375 55.5859375 C43.57626225 52.68706632 43.50899606 49.79577128 43.421875 46.8984375 C43.41607422 46.08181641 43.41027344 45.26519531 43.40429688 44.42382812 C43.24221664 39.97562621 43.08172712 38.14727275 40.12109375 34.62890625 C39.29222656 33.95472656 38.46335937 33.28054688 37.609375 32.5859375 C37.114375 31.5959375 37.114375 31.5959375 36.609375 30.5859375 C31.45004333 30.41233183 26.2924259 30.28561383 21.13085938 30.20141602 C19.37697727 30.16630601 17.62329872 30.1186038 15.87011719 30.05786133 C13.34258805 29.9725106 10.81777423 29.93315954 8.2890625 29.90234375 C7.12151932 29.84815025 7.12151932 29.84815025 5.9303894 29.79286194 C2.67393332 29.79053625 0.47842383 29.97646587 -2.22796631 31.8744812 C-7.00551275 36.79466349 -6.52412793 38.78746391 -7.390625 46.5859375 C-17.620625 46.5859375 -27.850625 46.5859375 -38.390625 46.5859375 C-39.328125 29.57700893 -39.328125 29.57700893 -35.203125 24.3359375 C-33.97278315 23.04606298 -32.70464591 21.79045666 -31.390625 20.5859375 C-30.50375 19.6784375 -29.616875 18.7709375 -28.703125 17.8359375 C-27.5584375 16.7221875 -27.5584375 16.7221875 -26.390625 15.5859375 C-25.66875 14.6578125 -24.946875 13.7296875 -24.203125 12.7734375 C-23.605 12.0515625 -23.006875 11.3296875 -22.390625 10.5859375 C-21.730625 10.5859375 -21.070625 10.5859375 -20.390625 10.5859375 C-20.143125 10.0496875 -19.895625 9.5134375 -19.640625 8.9609375 C-19.228125 8.1771875 -18.815625 7.3934375 -18.390625 6.5859375 C-18.00165039 5.55903809 -17.61267578 4.53213867 -17.21191406 3.47412109 C-13.57894042 -1.85151114 -5.71497789 -0.13088798 0 0 Z " fill="#72A030" transform="translate(1814.390625,239.4140625)"/>
<path d="M0 0 C39.6 0 79.2 0 120 0 C120 10.89 120 21.78 120 33 C91.29 33 62.58 33 33 33 C33 50.49 33 67.98 33 86 C57.75 86 82.5 86 108 86 C108 96.89 108 107.78 108 119 C83.25 119 58.5 119 33 119 C33 144.41 33 169.82 33 196 C22.11 196 11.22 196 0 196 C0 131.32 0 66.64 0 0 Z " fill="#72A030" transform="translate(668,183)"/>
<path d="M0 0 C9.57 0 19.14 0 29 0 C29 7.92 29 15.84 29 24 C29.66 24 30.32 24 31 24 C31.226875 23.484375 31.45375 22.96875 31.6875 22.4375 C34.68949999 16.86235716 38.47143545 12.41244751 43 8 C43.721875 7.071875 44.44375 6.14375 45.1875 5.1875 C45.785625 4.465625 46.38375 3.74375 47 3 C47.66 3 48.32 3 49 3 C49 2.34 49 1.68 49 1 C54.64163077 0.9011907 60.28275899 0.82856004 65.92504883 0.78027344 C67.84473441 0.76014652 69.76435862 0.7328421 71.68383789 0.69824219 C74.44172296 0.6497707 77.19879827 0.62704258 79.95703125 0.609375 C81.24623222 0.57840729 81.24623222 0.57840729 82.56147766 0.54681396 C88.50482354 0.54457112 88.50482354 0.54457112 91.06518555 2.89941406 C92 5 92 5 92 7 C92.556875 7.185625 93.11375 7.37125 93.6875 7.5625 C96.5593928 9.34773066 97.84101336 11.42874833 99.7109375 14.19921875 C101.53504286 16.74743866 103.75970634 18.81714977 106 21 C110 25.64864865 110 25.64864865 110 28 C110.639375 28.309375 111.27875 28.61875 111.9375 28.9375 C114 30 114 30 115 31 C115.09550698 32.41678911 115.12188483 33.83831241 115.12025452 35.25831604 C115.12231651 36.63609222 115.12231651 36.63609222 115.12442017 38.04170227 C115.11902725 39.56515511 115.11902725 39.56515511 115.11352539 41.11938477 C115.11367142 42.18266998 115.11381744 43.2459552 115.1139679 44.34146118 C115.11326825 47.87479658 115.10547343 51.40808 115.09765625 54.94140625 C115.09579225 57.38378368 115.09436827 59.82616149 115.09336853 62.26853943 C115.08954189 68.71134464 115.07971037 75.15412748 115.06866455 81.59692383 C115.05845356 88.16552426 115.05387158 94.7341283 115.04882812 101.30273438 C115.03808823 114.20183435 115.02049025 127.10091182 115 140 C104.44 140 93.88 140 83 140 C83.00112793 137.04289063 83.00225586 134.08578125 83.00341797 131.0390625 C83.00278973 121.25606311 82.96929069 111.47337368 82.9197216 101.69050598 C82.89068038 95.7605238 82.87262573 89.83093658 82.87988281 83.90087891 C82.88648208 78.17528432 82.86395581 72.45046981 82.82144547 66.72503662 C82.81032507 64.54346494 82.8096044 62.36181405 82.81957626 60.18023682 C82.8317767 57.11799645 82.80661651 54.05812694 82.77294922 50.99609375 C82.79128059 49.65065239 82.79128059 49.65065239 82.8099823 48.2780304 C82.69204865 42.30425815 81.22306796 39.09874832 77.285326 34.59388733 C76 33 76 33 76 31 C68.74 31 61.48 31 54 31 C52.85397729 33.29204542 51.73288096 35.59783786 50.6875 37.9375 C48.84619623 41.27912536 46.75423565 43.38011731 44 46 C43.34 46.825 42.68 47.65 42 48.5 C39.83816144 51.2022982 37.44514903 53.55485097 35 56 C32.54227426 59.68658861 32.69349906 62.50873526 32.68115234 66.77612305 C32.66608391 67.96183899 32.66608391 67.96183899 32.65071106 69.17150879 C32.61981469 71.7849047 32.60282611 74.39819786 32.5859375 77.01171875 C32.56723103 78.8234801 32.54765801 80.6352327 32.5272522 82.44697571 C32.47586989 87.21610354 32.43627685 91.98525963 32.39910889 96.7545166 C32.35910743 101.62092109 32.30799751 106.48720738 32.2578125 111.35351562 C32.16098094 120.90226908 32.07762587 130.45107108 32 140 C21.44 140 10.88 140 0 140 C0 93.8 0 47.6 0 0 Z " fill="#71A02F" transform="translate(1636,239)"/>
<path d="M0 0 C9.57 0 19.14 0 29 0 C29.33 6.93 29.66 13.86 30 21 C33.64091228 17.37612252 33.64091228 17.37612252 37 13.5 C39 11 39 11 41.5 8.5625 C44.13579954 6.11577073 44.13579954 6.11577073 45.58007812 2.88964844 C48.18160585 -0.21685703 48.40852804 -0.42748257 52.15429688 -0.77636719 C53.84199907 -0.81588917 55.53075203 -0.82061358 57.21875 -0.796875 C58.56108704 -0.80548553 58.56108704 -0.80548553 59.93054199 -0.81427002 C61.82009415 -0.81834783 63.70973105 -0.80731123 65.59912109 -0.78222656 C68.49117816 -0.750098 71.37764795 -0.78191813 74.26953125 -0.8203125 C76.10678317 -0.81634755 77.9440316 -0.80865999 79.78125 -0.796875 C80.64488159 -0.80902039 81.50851318 -0.82116577 82.39831543 -0.8336792 C84.74969273 -0.77861552 86.74449475 -0.66950861 89 0 C91.41992188 2.88964844 91.41992188 2.88964844 93 6 C94.6459651 7.68711423 96.31237149 9.3545622 98 11 C99.33333333 12.66666667 100.66666667 14.33333333 102 16 C102.825 16.825 103.65 17.65 104.5 18.5 C111 25 111 25 111 28 C112.32 28.66 113.64 29.32 115 30 C115 65.97 115 101.94 115 139 C104.44 139 93.88 139 83 139 C83 106.33 83 73.66 83 40 C82.34 40 81.68 40 81 40 C79.53515625 37.31445312 79.53515625 37.31445312 78.0703125 34.62890625 C77.08589976 32.83381685 77.08589976 32.83381685 75 32 C75 31.34 75 30.68 75 30 C68.07 30 61.14 30 54 30 C53.34 31.32 52.68 32.64 52 34 C50.91425169 35.34515124 49.78631034 36.65701589 48.625 37.9375 C46.54671573 40.24910517 44.58811942 42.53433156 42.6875 45 C41.8521875 45.99 41.8521875 45.99 41 47 C40.34 47 39.68 47 39 47 C38.7525 47.556875 38.505 48.11375 38.25 48.6875 C37 51 37 51 34.95599365 53.13285828 C32.44153847 56.81860611 32.42551272 59.87809487 32.45410156 64.18676758 C32.44376389 64.99704407 32.43342621 65.80732056 32.42277527 66.64215088 C32.39337079 69.30981442 32.39184862 71.97671846 32.390625 74.64453125 C32.37564173 76.49828028 32.35891428 78.35201598 32.34051514 80.20573425 C32.29684579 85.07681902 32.27684344 89.9477237 32.26177979 94.81896973 C32.24220723 99.79283291 32.20023736 104.76650166 32.16015625 109.74023438 C32.08485837 119.49346252 32.03663505 129.24654992 32 139 C21.44 139 10.88 139 0 139 C0 93.13 0 47.26 0 0 Z " fill="#71A02F" transform="translate(1463,622)"/>
<path d="M0 0 C3.04162868 3.04162868 5.22327678 5.59277646 7.625 9.0625 C14.66621142 19.26325088 14.66621142 19.26325088 23.97744673 27.14636081 C27.32109221 29.1396796 29.60161399 30.66288082 30.74273264 34.49286377 C31.02603889 37.67355267 31.05165755 40.77007538 30.99568176 43.96315002 C31.00604499 45.1775638 31.01640822 46.39197757 31.02708548 47.64319175 C31.04765435 51.00756402 31.03238382 54.36830026 31.00182021 57.73236644 C30.97753432 61.36232486 30.99940069 64.99204579 31.01542664 68.62200928 C31.03943693 75.7298727 31.02061315 82.83700821 30.98705045 89.94480819 C30.94941292 98.22102242 30.95277317 106.49706751 30.95748969 114.77334737 C30.96436918 129.5390716 30.93187979 144.30445176 30.87817383 159.07006836 C30.82606891 173.40024157 30.80482987 187.73003824 30.81665039 202.06030273 C30.8294698 217.66385927 30.82684101 233.26725502 30.79580516 248.87079185 C30.79416694 249.69575037 30.79252872 250.52070889 30.79084086 251.37066616 C30.78755005 253.02757507 30.78422828 254.68448393 30.78087518 256.34139271 C30.77009716 262.11146131 30.76982556 267.88147644 30.77317238 273.6515522 C30.77673275 280.68183973 30.76183509 287.71181137 30.72361246 294.74200029 C30.70449784 298.32954238 30.69331342 301.91663622 30.70369339 305.50422478 C30.71463284 309.39107269 30.68688478 313.27708726 30.65510559 317.16383362 C30.66421284 318.30078834 30.67332009 319.43774305 30.68270332 320.60915095 C30.57320758 328.26359506 30.57320758 328.26359506 27.5621748 332.13189602 C26.71665711 332.74837033 25.87113943 333.36484465 25 334 C23.96440997 335.0832474 22.93479369 336.17227126 21.9140625 337.26953125 C21.11162109 338.13203491 21.11162109 338.13203491 20.29296875 339.01196289 C19.74253906 339.60614014 19.19210937 340.20031738 18.625 340.8125 C18.05136719 341.4305249 17.47773438 342.0485498 16.88671875 342.68530273 C13.3737643 346.4815439 9.91251687 350.31217444 6.5625 354.25390625 C4.47050223 356.59171375 2.21831001 358.78168999 0 361 C0 241.87 0 122.74 0 0 Z " fill="#F6C444" transform="translate(343,224)"/>
<path d="M0 0 C19.8 0 39.6 0 60 0 C61.32 1.65 62.64 3.3 64 5 C65.2684375 6.2684375 65.2684375 6.2684375 66.5625 7.5625 C67.366875 8.366875 68.17125 9.17125 69 10 C69.80442787 10.76277252 69.80442787 10.76277252 70.62510681 11.54095459 C72.8129367 15.45396623 72.4421955 19.37217198 72.43579102 23.78222656 C72.44586685 24.77457809 72.45594269 25.76692963 72.46632385 26.78935242 C72.49484275 30.07322429 72.5006829 33.35663695 72.50390625 36.640625 C72.51354621 38.92503041 72.5236386 41.20943395 72.53416443 43.49383545 C72.5521368 48.28548474 72.55768447 53.07697172 72.5559082 57.86865234 C72.55560367 64.00006582 72.59652391 70.13043444 72.64822483 76.26160049 C72.68163426 80.98177846 72.68766431 85.70170536 72.68607903 90.42198944 C72.68961335 92.68177637 72.70285057 94.9415702 72.72607613 97.20124054 C72.7555746 100.368295 72.74680802 103.53310226 72.72875977 106.70019531 C72.75404755 108.09231483 72.75404755 108.09231483 72.77984619 109.51255798 C72.64122304 119.11738372 67.56054648 123.43945352 61 130 C40.87 130 20.74 130 0 130 C0 87.1 0 44.2 0 0 Z " fill="#FDFEFD" transform="translate(984,598)"/>
<path d="M0 0 C9.9 0 19.8 0 30 0 C30.33 7.26 30.66 14.52 31 22 C32.32 20.02 33.64 18.04 35 16 C36.32259478 14.43116396 37.6757041 12.88738243 39.0625 11.375 C41.04218696 9.20912367 42.91680523 7.11667314 44.62109375 4.7265625 C45.07613281 4.15679687 45.53117188 3.58703125 46 3 C46.66 3 47.32 3 48 3 C48 2.34 48 1.68 48 1 C59.22 1 70.44 1 82 1 C82 10.9 82 20.8 82 31 C72.76 31 63.52 31 54 31 C53.67 32.32 53.34 33.64 53 35 C50.32250135 39.60323807 46.79879933 43.29860578 43 47 C42.278125 47.928125 41.55625 48.85625 40.8125 49.8125 C40.214375 50.534375 39.61625 51.25625 39 52 C38.34 52 37.68 52 37 52 C36.71125 52.598125 36.4225 53.19625 36.125 53.8125 C35 56 35 56 33 59 C32.7871949 61.62561843 32.68875393 64.14879 32.68115234 66.77612305 C32.66608391 67.96183899 32.66608391 67.96183899 32.65071106 69.17150879 C32.61981469 71.7849047 32.60282611 74.39819786 32.5859375 77.01171875 C32.56723103 78.8234801 32.54765801 80.6352327 32.5272522 82.44697571 C32.47586989 87.21610354 32.43627685 91.98525963 32.39910889 96.7545166 C32.35910743 101.62092109 32.30799751 106.48720738 32.2578125 111.35351562 C32.16098094 120.90226908 32.07762587 130.45107108 32 140 C21.44 140 10.88 140 0 140 C0 93.8 0 47.6 0 0 Z " fill="#71A030" transform="translate(948,239)"/>
<path d="M0 0 C9.57 0 19.14 0 29 0 C29.33 7.26 29.66 14.52 30 22 C34.26283519 19.87614292 34.26283519 19.87614292 36 16 C36.80866809 14.73390349 37.64434963 13.48483071 38.5 12.25 C38.9228125 11.63640625 39.345625 11.0228125 39.78125 10.390625 C40.1834375 9.93171875 40.585625 9.4728125 41 9 C41.66 9 42.32 9 43 9 C43.268125 8.2575 43.53625 7.515 43.8125 6.75 C45.82037088 2.10019374 45.82037088 2.10019374 48 0 C50.78572354 -0.35599078 53.17036591 -0.46710804 55.94921875 -0.390625 C56.72183548 -0.38496521 57.49445221 -0.37930542 58.29048157 -0.37347412 C60.75678629 -0.35109327 63.22163492 -0.30089703 65.6875 -0.25 C67.36000505 -0.22993706 69.03253289 -0.21168592 70.70507812 -0.1953125 C74.80439681 -0.15462447 78.90057006 -0.07634738 83 0 C83 10.23 83 20.46 83 31 C73.76 31 64.52 31 55 31 C54.34 32.32 53.68 33.64 53 35 C51.99944737 36.26285968 50.95379648 37.49078855 49.875 38.6875 C49.25753906 39.38101563 48.64007812 40.07453125 48.00390625 40.7890625 C46.6434946 42.2900235 45.27604097 43.78462598 43.90234375 45.2734375 C39.91948894 49.63596632 36.68971412 53.73264318 34 59 C33.01 59 32.02 59 31 59 C31 85.73 31 112.46 31 140 C20.77 140 10.54 140 0 140 C0 93.8 0 47.6 0 0 Z " fill="#72A030" transform="translate(1334,239)"/>
<path d="M0 0 C9.57 0.33 19.14 0.66 29 1 C29.27843326 24.45321446 29.49226165 47.9060274 29.62174606 71.36056519 C29.68348105 82.25234432 29.76756277 93.14307427 29.90527344 104.03417969 C30.02532165 113.5329894 30.10240165 123.03103893 30.12906194 132.53058624 C30.14463411 137.55556929 30.18091611 142.57837872 30.26876068 147.60266113 C30.35098221 152.34431104 30.37519095 157.08291925 30.35729218 161.82521439 C30.36056011 163.5537744 30.3839834 165.2824494 30.4304657 167.01038742 C30.76726702 180.19115752 27.17641616 187.5614883 18.43690538 197.37967873 C16.49093541 199.57404488 14.68424794 201.87133911 12.87109375 204.17578125 C11.73024891 205.55773902 10.58590606 206.93681917 9.4375 208.3125 C8.55481445 209.38274414 8.55481445 209.38274414 7.65429688 210.47460938 C5.18669866 213.45197248 2.73974366 216.26025634 0 219 C0 146.73 0 74.46 0 0 Z " fill="#F6C443" transform="translate(419,277)"/>
<path d="M0 0 C1.21178421 -0.01921509 2.42356842 -0.03843018 3.67207336 -0.05822754 C4.96904648 -0.06672729 6.26601959 -0.07522705 7.60229492 -0.08398438 C8.60321954 -0.09246651 8.60321954 -0.09246651 9.62436485 -0.10112 C13.15551685 -0.13099738 16.68650768 -0.14952333 20.21777344 -0.15820312 C23.84269717 -0.16916038 27.46611369 -0.2172137 31.09056568 -0.27414703 C33.89865781 -0.31161381 36.70639436 -0.32182203 39.51471519 -0.32487488 C41.49385935 -0.33377774 43.47281221 -0.37096102 45.45161438 -0.40881348 C52.38283572 -0.37474766 57.50869447 0.1422648 63.07113647 4.51229858 C67.88384401 9.6389554 68.27477009 16.33628656 68.71948242 23.06445312 C68.78182571 23.87286652 68.84416901 24.68127991 68.90840149 25.51419067 C69.03724479 27.21298838 69.1604769 28.91222023 69.27832031 30.61181641 C69.45686506 33.1843183 69.65202085 35.75512631 69.8503418 38.32617188 C69.97436274 39.98885992 70.09744038 41.65161865 70.21948242 43.31445312 C70.2756926 44.06894745 70.33190277 44.82344177 70.38981628 45.60079956 C70.77503449 51.21485915 70.77026367 56.65959378 70.77026367 62.32226562 C39.75026367 62.32226562 8.73026367 62.32226562 -23.22973633 62.32226562 C-22.05406065 36.45740076 -22.05406065 36.45740076 -21.29223633 27.38476562 C-21.21811523 26.39798828 -21.14399414 25.41121094 -21.06762695 24.39453125 C-19.93125072 10.61943403 -19.93125072 10.61943403 -15.47973633 5.50976562 C-15.01051758 4.94644531 -14.54129883 4.383125 -14.05786133 3.80273438 C-9.95520439 0.48028356 -5.11518772 0.06583984 0 0 Z " fill="#F6C444" transform="translate(70.229736328125,704.677734375)"/>
<path d="M0 0 C0.57854736 0.23187012 1.15709473 0.46374023 1.75317383 0.70263672 C4.43553724 1.77067158 7.12386898 2.82284785 9.8125 3.875 C10.72193359 4.23980469 11.63136719 4.60460937 12.56835938 4.98046875 C39.43720476 15.42418957 68.15236436 11.15940212 94 0 C94.17898645 10.28177729 93.76942777 20.40360721 92.88305664 30.64575195 C92.6856715 32.95892833 92.50757606 35.27311302 92.33007812 37.58789062 C92.20428654 39.08863948 92.07737409 40.5892949 91.94921875 42.08984375 C91.89908127 42.76707993 91.84894379 43.4443161 91.79728699 44.14207458 C91.21704939 50.46179614 89.94876175 56.67112574 85 60.9375 C80.74110972 63.86548707 77.84695479 64.13292694 72.7878418 64.17700195 C70.8652076 64.19625481 70.8652076 64.19625481 68.9037323 64.21589661 C67.50223172 64.22406445 66.10072676 64.2315081 64.69921875 64.23828125 C63.99234232 64.24235678 63.28546589 64.2464323 62.55716896 64.25063133 C58.81554076 64.27147402 55.07394904 64.28578339 51.33227539 64.29516602 C47.47532124 64.30622589 43.61894474 64.34062522 39.76219463 64.38033772 C36.78954524 64.40653006 33.81703297 64.41486012 30.84427834 64.41844749 C29.42295239 64.42330687 28.00163231 64.4349025 26.58041954 64.45348549 C24.58720257 64.47792746 22.5937035 64.47448717 20.6003418 64.4699707 C19.46799606 64.47583694 18.33565033 64.48170319 17.16899109 64.48774719 C11.86802169 63.67186199 8.83370208 61.12918582 5.70410156 56.89038086 C3.38899433 52.3798127 3.09581534 47.74483764 2.734375 42.75390625 C2.65125061 41.78396225 2.56812622 40.81401825 2.48248291 39.81468201 C2.22254861 36.73168952 1.98635231 33.64737997 1.75 30.5625 C1.57699195 28.49401705 1.40252671 26.42565544 1.2265625 24.35742188 C0.55162323 16.22147626 -0.1118773 8.16882811 0 0 Z " fill="#F6C443" transform="translate(47,168)"/>
<path d="M0 0 C10.56 0 21.12 0 32 0 C32 46.2 32 92.4 32 140 C21.44 140 10.88 140 0 140 C0 93.8 0 47.6 0 0 Z " fill="#71A030" transform="translate(1400,621)"/>
<path d="M0 0 C1.63223353 -0.05300703 3.26587209 -0.07055815 4.89892578 -0.05908203 C5.76687775 -0.06956573 6.63482971 -0.08004944 7.52908325 -0.09085083 C9.36309538 -0.10368214 11.19727218 -0.10102818 13.03125 -0.08398438 C15.82998981 -0.0669811 18.6205275 -0.12441017 21.41845703 -0.18798828 C23.20361084 -0.19121351 24.98877905 -0.19005491 26.77392578 -0.18408203 C27.60536102 -0.20654999 28.43679626 -0.22901794 29.29342651 -0.25216675 C32.97634162 -0.16441886 35.11627051 0.01185091 37.87310791 2.58538818 C41.96923828 7.88005752 41.96923828 7.88005752 41.96923828 10.80810547 C42.62923828 10.80810547 43.28923828 10.80810547 43.96923828 10.80810547 C44.08524185 18.28383821 44.17400812 25.75937596 44.22829914 33.23582745 C44.25436055 36.70775396 44.28969215 40.17906339 44.34643555 43.65063477 C44.41130662 47.64459045 44.4354469 51.63790105 44.45751953 55.63232422 C44.48332596 56.87519699 44.50913239 58.11806976 44.53572083 59.39860535 C44.53853909 68.06131711 44.53853909 68.06131711 41.6262207 71.8815918 C40.7494165 72.51734131 39.8726123 73.15309082 38.96923828 73.80810547 C38.55851074 74.55882324 38.1477832 75.30954102 37.72460938 76.08300781 C34.71547947 79.04024174 30.92844556 78.41818585 26.88330078 78.40966797 C25.98936615 78.41823822 25.09543152 78.42680847 24.17440796 78.43563843 C22.28313585 78.44712443 20.39177538 78.44812581 18.50048828 78.43945312 C15.61092601 78.43314192 12.7254797 78.47999874 9.83642578 78.53076172 C7.99788928 78.53530893 6.15934177 78.53671412 4.32080078 78.53466797 C3.45919342 78.55308746 2.59758606 78.57150696 1.70986938 78.59048462 C-4.14016303 78.50060038 -4.14016303 78.50060038 -6.7210083 76.49383545 C-10.03076172 72.68101922 -10.03076172 72.68101922 -10.03076172 69.80810547 C-10.69076172 69.80810547 -11.35076172 69.80810547 -12.03076172 69.80810547 C-12.03076172 50.33810547 -12.03076172 30.86810547 -12.03076172 10.80810547 C-11.37076172 10.80810547 -10.71076172 10.80810547 -10.03076172 10.80810547 C-9.78326172 10.27185547 -9.53576172 9.73560547 -9.28076172 9.18310547 C-8.86826172 8.39935547 -8.45576172 7.61560547 -8.03076172 6.80810547 C-7.52915527 5.78700684 -7.02754883 4.7659082 -6.51074219 3.71386719 C-3.66779894 0.38282658 -3.66779894 0.38282658 0 0 Z " fill="#FDFDFC" transform="translate(1296.03076171875,651.19189453125)"/>
<path d="M0 0 C5.56811189 -0.24815034 11.13297791 -0.42906728 16.70532227 -0.54931641 C18.59814529 -0.59945527 20.49058382 -0.66759108 22.38208008 -0.75439453 C25.11115182 -0.87645246 27.83509371 -0.93254268 30.56640625 -0.9765625 C31.40522842 -1.02817535 32.2440506 -1.07978821 33.10829163 -1.13296509 C36.95716223 -1.13659758 39.14103064 -0.73486931 42.11061096 1.80567932 C47.66186705 8.70300413 48.01450245 15.26763198 47.89453125 23.85546875 C47.89885666 25.15648026 47.90318207 26.45749176 47.90763855 27.79792786 C47.91340519 30.5341226 47.89471745 33.26869784 47.85766602 36.00463867 C47.81204677 39.49548015 47.82484705 42.98320753 47.85547352 46.47411633 C47.87762655 49.83068731 47.85300639 53.18638609 47.83203125 56.54296875 C47.84103958 57.78789597 47.85004791 59.03282318 47.85932922 60.31547546 C47.67637713 69.97049453 47.67637713 69.97049453 44.53417969 74.28515625 C40.67360397 77.96132834 36.74327832 77.99880188 31.62109375 77.89453125 C30.73140396 77.89885666 29.84171417 77.90318207 28.92506409 77.90763855 C27.05161259 77.90801868 25.17808614 77.89102599 23.30493164 77.85766602 C20.44138312 77.81256116 17.58431203 77.83693762 14.72070312 77.86914062 C12.89580992 77.86092151 11.07092945 77.84868768 9.24609375 77.83203125 C7.96779945 77.84554375 7.96779945 77.84554375 6.66368103 77.85932922 C0.85773894 77.69886706 0.85773894 77.69886706 -1.57809448 75.71420288 C-2.89038086 74.13549805 -2.89038086 74.13549805 -5 71 C-5.79379311 70.33182251 -5.79379311 70.33182251 -6.60362244 69.65014648 C-8.60651904 67.28325599 -8.40725556 65.53348613 -8.45166016 62.4621582 C-8.4740274 61.32700272 -8.49639465 60.19184723 -8.5194397 59.02229309 C-8.52591522 57.79419418 -8.53239075 56.56609528 -8.5390625 55.30078125 C-8.55141937 54.03662888 -8.56377625 52.7724765 -8.57650757 51.47001648 C-8.59610175 48.79064058 -8.60853716 46.11220907 -8.61083984 43.43286133 C-8.61610479 40.01702419 -8.66731125 36.60358988 -8.73035622 33.18839741 C-8.78133955 29.9134881 -8.78186223 26.63853416 -8.7890625 23.36328125 C-8.81578033 22.1453035 -8.84249817 20.92732574 -8.87002563 19.67243958 C-8.82236557 13.68045769 -8.5595393 9.89496632 -4.51318359 5.28979492 C-3.34938911 4.18548764 -2.17978962 3.08720221 -1 2 C-0.67 1.34 -0.34 0.68 0 0 Z " fill="#FDFEFD" transform="translate(1083,270)"/>
<path d="M0 0 C1.28142883 -0.00786278 1.28142883 -0.00786278 2.58874512 -0.0158844 C4.39427605 -0.02230563 6.19984882 -0.02096627 8.00537109 -0.01245117 C10.77126317 -0.00393699 13.53509309 -0.03270604 16.30078125 -0.06445312 C18.05468688 -0.0660651 19.80859617 -0.06548768 21.5625 -0.0625 C22.39068237 -0.07373398 23.21886475 -0.08496796 24.07214355 -0.09654236 C29.78708866 -0.02699813 29.78708866 -0.02699813 32.32617188 2.33959961 C33.28125 4.43359375 33.28125 4.43359375 33.28125 6.43359375 C34.2403125 6.86671875 34.2403125 6.86671875 35.21875 7.30859375 C37.28125 8.43359375 37.28125 8.43359375 38.28125 10.43359375 C38.40773528 12.23882292 38.47173714 14.04857698 38.50585938 15.85791016 C38.52837769 16.99314117 38.550896 18.12837219 38.57409668 19.29800415 C38.64504797 24.50701135 38.70282344 29.71594991 38.74121094 34.92529297 C38.76343525 37.67072533 38.80512067 40.41478715 38.86425781 43.15966797 C38.94936222 47.11808834 38.97653979 51.07586904 39 55.03515625 C39.03299194 56.25627106 39.06598389 57.47738586 39.09997559 58.73550415 C39.08590209 64.75365634 38.83489633 68.55747552 34.79882812 73.20849609 C33.65459486 74.31359452 32.48827332 75.39744366 31.28125 76.43359375 C30.95125 76.76359375 30.62125 77.09359375 30.28125 77.43359375 C24.79668384 77.7262719 19.30949983 77.74769667 13.81787109 77.78369141 C11.96715705 77.80023012 10.11650634 77.82749274 8.26611328 77.86572266 C5.59894647 77.92056338 2.93328014 77.94237794 0.265625 77.95703125 C-0.55850891 77.97970062 -1.38264282 78.00237 -2.23175049 78.02572632 C-6.46536135 78.01020151 -8.17449929 77.86586899 -11.59277344 75.15087891 C-12.2943457 74.2541748 -12.99591797 73.3574707 -13.71875 72.43359375 C-14.51403107 71.53485786 -14.51403107 71.53485786 -15.32537842 70.6179657 C-17.09831939 67.83854737 -17.11103713 66.04991696 -17.13867188 62.76635742 C-17.15458374 61.62804977 -17.17049561 60.48974213 -17.18688965 59.31694031 C-17.18709106 58.09086563 -17.18729248 56.86479095 -17.1875 55.6015625 C-17.19511353 54.3364534 -17.20272705 53.0713443 -17.21057129 51.76789856 C-17.22138046 49.09030806 -17.22559052 46.41359991 -17.21972656 43.73608398 C-17.21384308 40.3195042 -17.24436637 36.90435173 -17.28484344 33.4880476 C-17.31705511 30.21341373 -17.31260404 26.93883024 -17.3125 23.6640625 C-17.32889526 22.44406052 -17.34529053 21.22405853 -17.36218262 19.96708679 C-17.30340889 12.71772262 -16.69679352 8.80645078 -11.71875 3.43359375 C-11.24896729 2.88792755 -10.77918457 2.34226135 -10.29516602 1.78005981 C-7.4508208 -0.64938411 -3.57708809 -0.01267962 0 0 Z " fill="#FEFEFE" transform="translate(851.71875,269.56640625)"/>
<path d="M0 0 C9.9 0 19.8 0 30 0 C30 0.66 30 1.32 30 2 C30.5775 2.20625 31.155 2.4125 31.75 2.625 C34 4 34 4 35.9375 6.9375 C38.10222742 10.15179223 39.69846743 11.13759701 43 13 C46.15230245 16.02474989 46.3761096 18.79956001 46.46813965 23.06733704 C46.46834106 23.85593613 46.46854248 24.64453522 46.46875 25.45703125 C46.48017029 26.68881355 46.48017029 26.68881355 46.49182129 27.94548035 C46.50261228 29.681152 46.50547944 31.41688853 46.50097656 33.15258789 C46.50000694 35.79359867 46.54157856 38.43167623 46.5859375 41.07226562 C46.59114711 42.76301481 46.59383265 44.45377404 46.59375 46.14453125 C46.6183429 47.31832085 46.6183429 47.31832085 46.64343262 48.51582336 C46.5529369 55.783834 43.368169 59.57407078 38.4375 64.625 C37.2309375 65.800625 37.2309375 65.800625 36 67 C35.34 67.825 34.68 68.65 34 69.5 C33.34 70.325 32.68 71.15 32 72 C31.41347656 72.86367188 30.82695313 73.72734375 30.22265625 74.6171875 C26.60663598 78.18414553 21.95716136 77.65746986 17.15820312 77.68359375 C15.93037109 77.66425781 14.70253906 77.64492188 13.4375 77.625 C11.58995117 77.65400391 11.58995117 77.65400391 9.70507812 77.68359375 C8.52236328 77.67714844 7.33964844 77.67070312 6.12109375 77.6640625 C5.0427124 77.65842285 3.96433105 77.6527832 2.85327148 77.64697266 C-0.9757157 76.77875874 -1.78789411 75.17614192 -4 72 C-5.33744263 70.99211426 -5.33744263 70.99211426 -6.7019043 69.96386719 C-10.35883989 65.24749642 -9.77305354 60.38695672 -9.76953125 54.578125 C-9.7814299 53.36356628 -9.79332855 52.14900757 -9.80558777 50.89764404 C-9.82212563 48.3289487 -9.82548925 45.76013962 -9.81665039 43.19140625 C-9.81252809 39.27667926 -9.87751324 35.36714556 -9.94726562 31.453125 C-9.95474889 28.95313408 -9.95813679 26.45312687 -9.95703125 23.953125 C-9.98263626 22.7903302 -10.00824127 21.6275354 -10.03462219 20.42950439 C-9.94606353 14.13377323 -9.26607412 10.59238564 -5.00268555 5.81542969 C-3.67467521 4.5371282 -2.34176579 3.2638555 -1 2 C-0.67 1.34 -0.34 0.68 0 0 Z " fill="#FDFDFC" transform="translate(1227,270)"/>
<path d="M0 0 C11.22 0 22.44 0 34 0 C34 0.99 34 1.98 34 3 C33.34 3.33 32.68 3.66 32 4 C30.71693445 6.67353703 29.52231266 9.33180259 28.375 12.0625 C28.05015625 12.82111328 27.7253125 13.57972656 27.390625 14.36132812 C26.58786154 16.23837799 25.79316857 18.1188756 25 20 C24.34 20 23.68 20 23 20 C22.82984375 20.54527344 22.6596875 21.09054688 22.484375 21.65234375 C20.67459186 27.28384978 18.49654622 32.63939569 16 38 C15.34 38 14.68 38 14 38 C13.87625 38.556875 13.7525 39.11375 13.625 39.6875 C13 42 13 42 11 47 C1.76 47 -7.48 47 -17 47 C-14 35 -14 35 -13 33 C-12.34 33 -11.68 33 -11 33 C-10.89816406 32.02933594 -10.79632812 31.05867188 -10.69140625 30.05859375 C-10.04124495 25.50746463 -8.52466779 21.36000537 -6.9375 17.0625 C-6.65583984 16.28326172 -6.37417969 15.50402344 -6.08398438 14.70117188 C-5.39532294 12.79859875 -4.69850097 10.89898275 -4 9 C-3.34 9 -2.68 9 -2 9 C-1.34 6.03 -0.68 3.06 0 0 Z " fill="#72A030" transform="translate(1107,179)"/>
<path d="M0 0 C0.85464844 -0.03222656 1.70929688 -0.06445312 2.58984375 -0.09765625 C5.04381408 -0.1014846 7.12915595 -0.0136868 9.5 0.625 C11.92578125 3.48828125 11.92578125 3.48828125 13.5 6.625 C15.12836738 8.3291054 16.78769752 10.00525441 18.5 11.625 C20.79692864 13.92192864 19.78022489 19.29380248 19.8125 22.375 C19.84150391 23.2825 19.87050781 24.19 19.90039062 25.125 C19.94107403 29.40614632 19.95524066 31.89507827 17.6484375 35.59375 C16.93945312 36.2640625 16.23046875 36.934375 15.5 37.625 C14.613125 38.5325 13.72625 39.44 12.8125 40.375 C12.049375 41.1175 11.28625 41.86 10.5 42.625 C10.17 42.955 9.84 43.285 9.5 43.625 C6.52895987 43.77857265 3.59722447 43.85668121 0.625 43.875 C-0.20386719 43.895625 -1.03273438 43.91625 -1.88671875 43.9375 C-3.08361328 43.94523438 -3.08361328 43.94523438 -4.3046875 43.953125 C-5.03671387 43.9624707 -5.76874023 43.97181641 -6.52294922 43.98144531 C-9.05327143 43.5252499 -9.94788327 42.63693513 -11.5 40.625 C-11.5 39.965 -11.5 39.305 -11.5 38.625 C-12.0775 38.41875 -12.655 38.2125 -13.25 38 C-16.47551735 36.02885051 -17.68432056 33.94253774 -19.5 30.625 C-20.1069938 27.6503049 -20.16650779 24.77943994 -20.125 21.75 C-20.11952148 20.94933105 -20.11404297 20.14866211 -20.10839844 19.32373047 C-19.91407851 13.86602065 -19.08719758 10.19343383 -15.203125 6.1328125 C-14.64109375 5.63523437 -14.0790625 5.13765625 -13.5 4.625 C-12.96890625 3.9134375 -12.4378125 3.201875 -11.890625 2.46875 C-8.17848306 -0.39420915 -4.56140731 -0.03439975 0 0 Z " fill="#72A131" transform="translate(1415.5,561.375)"/>
<path d="M0 0 C0.920728 0.00022659 1.84145599 0.00045319 2.79008484 0.00068665 C3.78079483 0.0161705 4.77150482 0.03165436 5.79223633 0.04760742 C6.80900955 0.05185226 7.82578278 0.05609711 8.87336731 0.06047058 C12.1239357 0.0772762 15.37388628 0.11493235 18.62426758 0.15307617 C20.82673259 0.16812055 23.02920731 0.18180938 25.23168945 0.1940918 C30.63362055 0.22718598 36.03508929 0.27898169 41.43676758 0.34057617 C41.43676758 3.97057617 41.43676758 7.60057617 41.43676758 11.34057617 C39.45676758 12.33057617 39.45676758 12.33057617 37.43676758 13.34057617 C35.53405027 15.50368186 35.53405027 15.50368186 33.81176758 17.96557617 C32.73321784 19.45859043 31.61759807 20.92706973 30.43676758 22.34057617 C29.77676758 22.34057617 29.11676758 22.34057617 28.43676758 22.34057617 C28.00364258 23.23776367 28.00364258 23.23776367 27.56176758 24.15307617 C26.43676758 26.34057617 26.43676758 26.34057617 24.43676758 29.34057617 C20.22946964 29.94945732 15.98940511 29.85538897 11.74316406 29.84155273 C9.6415748 29.84058415 7.54368475 29.88209906 5.44262695 29.92651367 C4.10083767 29.93172392 2.75903573 29.93440881 1.41723633 29.93432617 C-0.40964722 29.94496094 -0.40964722 29.94496094 -2.2734375 29.95581055 C-6.45149245 29.17446001 -7.90445464 27.5766589 -10.56323242 24.34057617 C-12.02447028 21.41810045 -11.81099392 18.78203779 -11.87573242 15.52807617 C-11.91311523 14.30475586 -11.95049805 13.08143555 -11.98901367 11.82104492 C-11.48830206 7.72807203 -10.39523396 6.26442641 -7.56323242 3.34057617 C-6.89483589 2.53936592 -6.89483589 2.53936592 -6.2129364 1.7219696 C-4.04078335 -0.09690093 -2.8087779 -0.02308585 0 0 Z " fill="#FAFCF8" transform="translate(1817.563232421875,320.659423828125)"/>
<path d="M0 0 C0.90070724 0.00022659 1.80141449 0.00045319 2.72941589 0.00068665 C4.18267021 0.02391243 4.18267021 0.02391243 5.6652832 0.04760742 C6.65986038 0.05185226 7.65443756 0.05609711 8.67915344 0.06047058 C11.8583982 0.07727465 15.03701102 0.11493041 18.21606445 0.15307617 C20.37035218 0.16812076 22.52464983 0.18180955 24.67895508 0.1940918 C29.96237412 0.22718373 35.24542414 0.27740025 40.52856445 0.34057617 C40.58770284 2.11491552 40.63009108 3.88981915 40.6652832 5.66479492 C40.69066162 6.65310303 40.71604004 7.64141113 40.7421875 8.65966797 C40.52856445 11.34057617 40.52856445 11.34057617 38.34106445 14.15307617 C37.41293945 14.87495117 36.48481445 15.59682617 35.52856445 16.34057617 C34.61012149 17.42600876 33.71400541 18.53072352 32.84106445 19.65307617 C32.07793945 20.53995117 31.31481445 21.42682617 30.52856445 22.34057617 C29.86856445 22.34057617 29.20856445 22.34057617 28.52856445 22.34057617 C28.09543945 23.23776367 28.09543945 23.23776367 27.65356445 24.15307617 C26.52856445 26.34057617 26.52856445 26.34057617 24.52856445 29.34057617 C20.32126651 29.94945732 16.08120198 29.85538897 11.83496094 29.84155273 C9.73337168 29.84058415 7.63548162 29.88209906 5.53442383 29.92651367 C4.19263454 29.93172392 2.8508326 29.93440881 1.5090332 29.93432617 C-0.31785034 29.94496094 -0.31785034 29.94496094 -2.18164062 29.95581055 C-6.35969557 29.17446001 -7.81265777 27.5766589 -10.47143555 24.34057617 C-11.93267341 21.41810045 -11.71919704 18.78203779 -11.78393555 15.52807617 C-11.82131836 14.30475586 -11.85870117 13.08143555 -11.8972168 11.82104492 C-11.39650519 7.72807203 -10.30343708 6.26442641 -7.47143555 3.34057617 C-7.02394455 2.806436 -6.57645355 2.27229584 -6.11540222 1.7219696 C-3.96814523 -0.08232896 -2.7798128 -0.02335977 0 0 Z " fill="#FBFCFA" transform="translate(1155.471435546875,702.659423828125)"/>
<path d="M0 0 C14.52 0 29.04 0 44 0 C44 12.38166311 44 12.38166311 40.8125 15.875 C39.85537109 16.95974609 39.85537109 16.95974609 38.87890625 18.06640625 C36.6086693 20.40272078 34.33585513 22.72902974 32 25 C31.60087402 25.69198486 31.20174805 26.38396973 30.79052734 27.09692383 C29 29 29 29 25.89306641 29.56518555 C18.93071486 29.69654221 18.93071486 29.69654221 15.80371094 29.6862793 C13.63736781 29.68749307 11.47780449 29.74719496 9.3125 29.81054688 C-0.56780235 29.94054519 -0.56780235 29.94054519 -4.06884766 27.64135742 C-7.92916992 22.72540297 -7.70499648 17.28489658 -7.5 11.26953125 C-6.79473007 6.65772709 -5.59008286 4.90625755 -2 2 C-1.34 2 -0.68 2 0 2 C0 1.34 0 0.68 0 0 Z " fill="#FBFCFA" transform="translate(1467,321)"/>
<path d="M0 0 C2.89723687 -0.36648448 5.57444251 -0.54018541 8.48046875 -0.57421875 C9.32668289 -0.5889473 10.17289703 -0.60367584 11.04475403 -0.61885071 C12.83939563 -0.64283295 14.63416908 -0.65823239 16.42895508 -0.66577148 C19.16133538 -0.68729391 21.88800589 -0.76737157 24.61914062 -0.84960938 C39.22222075 -1.09206025 39.22222075 -1.09206025 43.73828125 2.98046875 C46 8 46 8 46 25 C28.51 25 11.02 25 -7 25 C-7 8 -7 8 -2 3 C-1.34 2.01 -0.68 1.02 0 0 Z " fill="#FEFEFE" transform="translate(1642,652)"/>
<path d="M0 0 C9.9 0 19.8 0 30 0 C30 0.33 30 0.66 30 1 C20.76 1 11.52 1 2 1 C2 7.27 2 13.54 2 20 C1.01 20 0.02 20 -1 20 C-0.67 13.4 -0.34 6.8 0 0 Z " fill="#A1C076" transform="translate(1275,239)"/>
<path d="M0 0 C11.22 0 22.44 0 34 0 C34 0.99 34 1.98 34 3 C22.78 2.67 11.56 2.34 0 2 C0 1.34 0 0.68 0 0 Z " fill="#96B864" transform="translate(1107,179)"/>
<path d="M0 0 C0.66 0 1.32 0 2 0 C2.19635974 3.45789054 2.38058252 6.91632197 2.5625 10.375 C2.61857422 11.35984375 2.67464844 12.3446875 2.73242188 13.359375 C2.78076172 14.30039063 2.82910156 15.24140625 2.87890625 16.2109375 C2.9260376 17.08024902 2.97316895 17.94956055 3.02172852 18.84521484 C3 21 3 21 2 23 C1.34 23 0.68 23 0 23 C0 15.41 0 7.82 0 0 Z " fill="#E6EDDA" transform="translate(1665,240)"/>
</svg>
